<?xml version="1.0" encoding="utf-8"?>
<!-- Generator: Adobe Illustrator 27.9.3, SVG Export Plug-In . SVG Version: 9.03 Build 53313)  -->
<svg version="1.1" id="Layer_1" xmlns="http://www.w3.org/2000/svg" xmlns:xlink="http://www.w3.org/1999/xlink" x="0px" y="0px"
	 viewBox="0 0 569.41 583.91" style="enable-background:new 0 0 569.41 583.91;" xml:space="preserve">
<style type="text/css">
	.st0{fill:#FFFFFF;}
</style>
<g>
	<g>
		<path class="st0" d="M-17.12,631.82c0-222.4,0-444.8,0-667.2c203.12,0,406.24,0,609.36,0c0,240.8,0,481.6,0,722.4
			c-3.47-0.54-6.92-1.18-10.41-1.58c-5.07-0.58-10.19-0.82-15.24-1.52c-5.22-0.72-10.53-0.09-15.72-1.21
			c-1.62-0.35-3.31-0.43-4.98-0.56c-2.46-0.2-4.93-0.29-7.39-0.52c-3.02-0.28-6.03-0.7-9.05-0.97c-7.79-0.71-15.59-1.39-23.39-2.07
			c-7.16-0.62-14.32-1.2-21.48-1.84c-1.66-0.15-3.3-0.55-4.96-0.7c-4.44-0.41-8.88-0.77-13.33-1.12
			c-5.87-0.47-11.74-0.88-17.61-1.37c-4.21-0.35-8.42-0.75-12.63-1.17c-5.08-0.51-10.15-1.12-15.24-1.57
			c-7.55-0.67-15.12-1.18-22.67-1.85c-4.61-0.41-9.2-1.04-13.81-1.47c-4.53-0.43-9.07-0.71-13.6-1.1c-3.11-0.27-6.2-0.67-9.31-0.92
			c-9.71-0.79-19.43-1.53-29.14-2.31c-6.29-0.5-12.57-1.05-18.86-1.56c-4.61-0.37-9.23-0.67-13.84-1.08c-6.67-0.6-13.33-1.3-20-1.88
			c-1.81-0.16-3.66,0.07-5.47-0.09c-4.28-0.36-8.56-0.85-12.83-1.28c-3.18-0.32-6.36-0.58-9.53-0.94c-3.56-0.4-7.1-0.9-10.66-1.33
			c-3.55-0.43-7.19,0.17-10.67-1.01c-0.28-0.1-0.63,0.02-0.95,0.01c-1.59-0.09-3.18-0.15-4.76-0.31c-2.21-0.22-4.4-0.58-6.61-0.78
			c-6.68-0.63-13.37-1.19-20.05-1.82c-9.79-0.92-19.57-1.92-29.36-2.8c-9.23-0.83-18.48-1.53-27.71-2.3
			c-6.69-0.56-13.38-1.12-20.07-1.71c-8.2-0.72-16.4-1.47-24.6-2.2c-5.89-0.52-11.78-1.07-17.68-1.55
			c-9.79-0.79-19.59-1.56-29.39-2.29c-2.03-0.15-4.08-0.59-6.01,0.73c-0.62,0.42-1.7,0.27-2.56,0.21c-2.94-0.21-5.89-0.43-8.82-0.76
			c-1.87-0.21-3.72-0.62-5.57-0.96c-0.21-0.04-0.51-0.2-0.58-0.37c-0.48-1.27-1.6-1.14-2.61-1.25c-4.92-0.54-9.84-1.09-14.77-1.58
			c-3.81-0.38-7.64-0.68-11.46-1.04c-1.42-0.13-2.83-0.37-4.24-0.5C-10.61,632.39-13.87,632.11-17.12,631.82z M90.68,513.32
			c1.1,0.98,1.98,1.87,2.96,2.63c16.38,12.52,33.91,23.16,52.5,32.06c19.68,9.42,40.14,16.6,61.36,21.65
			c14.17,3.37,28.49,5.73,42.99,7.16c10.76,1.06,21.53,1.59,32.32,1.51c8.38-0.06,16.77-0.63,25.15-1.08
			c9.66-0.52,19.24-1.87,28.75-3.52c18.3-3.17,36.17-8,53.61-14.38c15.79-5.78,31.07-12.67,45.72-20.95c0.49-0.27,1-0.52,1.43-0.86
			c1.26-0.98,1.34-1.55,0.4-2.79c-0.29-0.38-0.63-0.72-0.96-1.08c-2.56-2.75-5.13-5.49-7.69-8.24c-0.21-0.23-0.37-0.5-0.57-0.78
			c0.3-0.52,0.57-0.99,0.84-1.47c-0.37-0.58-0.77-1.09-1.05-1.65c-0.31-0.62-0.52-1.3-0.79-2c0.57-0.39,1.02-0.71,1.49-1
			c14.37-8.89,28.02-18.75,40.78-29.87c19.65-17.13,36.66-36.56,51.08-58.26c11.96-18,21.48-37.22,28.79-57.56
			c7.98-22.17,12.99-44.98,15.06-68.43c1.76-19.98,1.38-39.94-1.27-59.85c-2.11-15.82-5.61-31.31-10.52-46.48
			c-10.97-33.93-28.22-64.33-51.49-91.32c-19.7-22.84-42.56-41.94-68.52-57.27c-26.95-15.92-55.84-26.82-86.5-33.04
			c-18.39-3.73-36.99-5.56-55.74-5.69c-20.04-0.14-39.91,1.75-59.58,5.64c-22.13,4.37-43.46,11.21-63.97,20.58
			c-24.81,11.32-47.57,25.86-68.25,43.65c-20.13,17.31-37.68,36.89-52.28,59.09c-16.81,25.54-28.94,53.14-36.41,82.8
			c-4.33,17.19-6.84,34.65-7.82,52.33c-0.62,11.2-0.46,22.38,0.34,33.57c0.94,13.18,2.78,26.24,5.66,39.13
			c5.96,26.66,15.86,51.77,29.58,75.38c8.9,15.33,19.22,29.64,30.93,42.95c10.33,11.73,21.52,22.56,33.68,32.38
			c0.59,0.47,1.07,1.08,1.7,1.71C100.34,505.02,95.02,508.45,90.68,513.32z"/>
		<path class="st0" d="M592.24,691.34c0,5.44,0,10.88,0,16.32c-0.91,0.07-1.83,0.14-3.15,0.24c1.32,0.1,2.24,0.17,3.15,0.24
			c0,11.04,0,22.08,0,33.12c-2.23-0.08-4.46-0.09-6.68-0.25c-8.73-0.65-17.45-1.36-26.18-2.02c-0.59-0.04-1.2,0.13-1.74,0.2
			c-0.97,6.86-0.51,7.63,2.47,11c0.8,0.91,1,1.8,0.33,2.8c-0.76,1.12-0.99,2.33-0.82,3.64c-7.04,0-14.07,0-21.11,0
			c0.41-2.01,1-4.01,1.19-6.04c0.33-3.57,0.47-7.16,0.57-10.75c0.06-2.06-0.42-2.51-2.49-2.72c-8.75-0.85-17.5-1.67-26.24-2.51
			c-10.58-1.01-21.15-2.02-31.73-3.07c-10.57-1.05-21.14-2.15-31.71-3.22c-0.69-0.07-1.4-0.01-2.3-0.01
			c-0.13,1.52-0.13,2.96-0.42,4.34c-0.34,1.63-0.25,3.14,0.28,4.7c0.27,0.79,0.23,1.71,0.23,2.57c0,1.1-0.17,2.21-0.12,3.31
			c0.08,2.07,0.79,4.29,0.24,6.17c-0.69,2.39-0.98,4.83-1.54,7.22c-1.6,0-3.2,0-4.8,0c-0.03-2.16-0.15-4.32-0.07-6.47
			c0.11-3.19-0.03-6.47,0.69-9.53c0.57-2.47,0.76-4.86,0.77-7.32c0.01-1.82,0-3.63,0-5.65c-15.25-1.55-30.28-3.07-45.44-4.61
			c-0.13,1.22-0.3,2.08-0.31,2.95c-0.07,5.02-0.11,10.03-0.13,15.05c-0.01,2.23,0.02,4.46,0.1,6.69c0.03,0.91-0.35,1.38-1.17,1.48
			c-0.68,0.08-1.38,0.02-2.31,0.02c0.61-1.25,0.96-2.4,0.03-3.5c-0.16-0.19-0.07-0.62-0.05-0.94c0.36-4.14,0.7-8.27,1.1-12.41
			c0.3-3.16,0.27-6.32,0.26-9.6c-14.98-1.53-29.63-3.03-44.5-4.55c-0.22,2.92-0.49,5.53-0.56,8.14c-0.03,1.09,0.13,2.31,0.63,3.25
			c0.83,1.54,0.74,3.03,0.51,4.64c-0.43,2.91-0.95,5.8-0.33,8.8c0.26,1.24-0.09,2.71-0.5,3.96c-0.9,2.75-1.64,5.49-1.32,8.41
			c0.04,0.39-0.01,0.8-0.01,1.2c-5.12,0-10.24,0-15.35,0c0.43-1.81,0.85-3.68-0.02-5.41c-1.23-2.45-1.09-4.93-0.62-7.48
			c0.58-3.15,1-6.29,0.57-9.53c-0.29-2.21-0.26-4.46,1.31-6.38c0.42-0.51,0.6-1.33,0.62-2.02c0.07-2.93,0.03-5.87,0.03-8.8
			c-3.45-0.89-41.81-4.59-43.82-4.13c0,3.42-0.24,6.94,0.07,10.42c0.33,3.68,0.25,7.32-0.11,10.97c-0.03,0.36-0.3,0.69-0.46,1.03
			c-1.39,0.07-2.66,0.2-3.93,0.18c-1.67-0.02-3.33-0.17-5-0.23c-1.26-0.05-1.84-0.66-1.9-1.94c-0.08-1.75-0.43-3.51-0.37-5.25
			c0.07-1.98,0.07-4.12,0.83-5.88c1.52-3.51,0.67-7.05,1.02-10.5c-3.12-0.96-170.05-17.08-172.37-16.65
			c-0.17,0.86-0.45,1.79-0.53,2.72c-0.33,3.98-0.53,7.97-0.9,11.94c-0.31,3.32-0.01,6.69-1.16,9.95c-0.73,2.06,0.45,3.5,2.66,3.68
			c0.39,0.03,0.8-0.04,1.19-0.09c1.12-0.14,1.66,0.37,1.67,1.47c0.01,0.96-0.02,1.92,0.02,2.88c0.16,4.53-0.64,9.12,0.83,13.58
			c0.15,0.44,0.12,0.95,0.13,1.43c0.03,1.74,0,3.48,0.07,5.21c0.08,1.81-0.9,3.53-0.3,5.42c0.15,0.47-0.48,1.3-0.91,1.83
			c-0.49,0.6-1.16,1.06-1.75,1.58c-4.16,0-8.32,0-12.48,0c-1.15-1.27-1.5-2.69-1.23-4.42c0.34-2.21,0.41-4.45,0.57-6.69
			c0.06-0.87,0.02-1.6-0.83-2.31c-1.2-1-1.66-2.46-1.24-4.1c0.96-0.12,1.8-0.22,2.72-0.33c0.17-1.14,0.31-2.16,0.46-3.18
			c0.65-4.27,1.33-8.53,1.94-12.8c0.26-1.82,1.23-3.08,2.76-3.98c0.68-0.4,1.39-0.76,2.46-1.33c-1.96-0.12-2-1.31-1.94-2.54
			c0.2-4.15,0.39-8.3,0.63-12.45c0.04-0.7,0.25-1.43,0.56-2.06c0.74-1.5,0.75-3.06,0.69-4.68c-0.05-1.21-0.61-1.74-1.73-1.83
			c-1.11-0.08-2.23-0.12-3.34-0.23c-7.55-0.75-15.1-1.53-22.65-2.25c-7.79-0.75-15.59-1.44-23.38-2.19
			c-9.14-0.88-18.28-1.78-27.43-2.67c-9.14-0.89-18.29-1.81-27.43-2.67c-4.93-0.46-9.87-0.81-14.8-1.22c0-15.68,0-31.36,0-47.04
			c7.88,0.72,15.75,1.43,23.63,2.15c9.15,0.84,18.29,1.76,27.45,2.54c10.9,0.92,21.8,1.69,32.7,2.56c9.4,0.75,18.79,1.56,28.19,2.35
			c9.63,0.81,19.27,1.59,28.9,2.48c7.88,0.73,15.74,1.68,23.67,0.95c0.54-0.05,1.11,0.06,1.66,0.16c2.91,0.5,5.81,1.04,8.73,1.53
			c3.41,0.57,6.86,0.36,10.33,1.17c4.47,1.04,9.2,0.93,13.81,1.33c9.79,0.86,19.58,1.73,29.37,2.62c9.55,0.86,19.09,1.73,28.64,2.63
			c7.56,0.71,15.11,1.46,22.66,2.19c4.11,0.4,8.22,0.82,12.33,1.16c6.45,0.53,12.91,0.95,19.35,1.52
			c10.34,0.91,20.68,1.91,31.02,2.86c7.72,0.7,15.44,1.35,23.16,2.06c8.19,0.75,16.38,1.56,24.58,2.29
			c5.49,0.49,10.99,0.85,16.47,1.38c7.87,0.76,15.72,1.68,23.58,2.44c6.12,0.59,12.26,1.02,18.39,1.59
			c5.57,0.52,11.12,1.26,16.69,1.67c5.62,0.42,11.19,1.27,16.82,1.59c4.38,0.25,8.75,0.82,13.12,1.26
			c7.84,0.79,15.67,1.57,23.52,2.3c11.46,1.07,22.91,2.19,34.36,3.28c9.3,0.89,18.61,1.77,27.91,2.67
			c5.48,0.53,10.97,1.07,16.44,1.64C584.33,690.43,588.29,690.9,592.24,691.34z M469.54,696.83c1.4,0.07,2.79,0.14,4.19,0.21
			c0-0.07,0-0.14,0.01-0.21C472.33,696.83,470.93,696.83,469.54,696.83c-1.52-1.1-3.19-0.54-4.81-0.47
			c-1.06-0.26-2.12-0.51-3.18-0.77c-0.03,0.1-0.05,0.19-0.08,0.29c1.09,0.16,2.17,0.32,3.27,0.48
			C466.34,696.52,467.93,696.68,469.54,696.83z M529.52,702.61c1.23,0,2.45,0,3.68,0c0-0.07,0-0.13-0.01-0.2
			c-1.23,0.07-2.46,0.13-3.68,0.2c-1.11-0.27-2.22-0.54-3.33-0.81c-0.02,0.1-0.04,0.21-0.06,0.31
			C527.25,702.28,528.38,702.45,529.52,702.61z M509.38,700.7c1.23,0.06,2.46,0.11,3.7,0.17c0-0.13,0-0.25,0-0.38
			c-1.24,0.07-2.47,0.14-3.71,0.21c-1.06-0.25-2.11-0.5-3.17-0.75c-0.02,0.09-0.05,0.18-0.07,0.27
			C507.2,700.38,508.29,700.54,509.38,700.7z M-4.51,652.66c1.18,0,2.36,0,3.55,0C-2.15,652.66-3.34,652.66-4.51,652.66
			c-1.39-0.7-1.39-0.7-3.48-0.43C-6.97,652.36-5.74,652.51-4.51,652.66z M555.65,704.55c-1.34,0-2.67,0-4.01,0
			C552.98,704.55,554.32,704.55,555.65,704.55c0.75,0.2,1.49,0.45,2.24,0.6c0.77,0.16,1.56,0.22,2.34,0.32
			c1.38,0.08,2.75,0.15,4.13,0.23c0-0.14,0-0.28,0-0.43c-1.38,0.06-2.76,0.13-4.14,0.19c-0.74-0.2-1.48-0.43-2.24-0.58
			C557.21,704.74,556.43,704.67,555.65,704.55z M17.29,654.15c-1.34,0-2.69,0-4.03,0C14.61,654.15,15.96,654.15,17.29,654.15
			c1.6,0.74,1.6,0.74,3.56,0.43C19.81,654.45,18.55,654.3,17.29,654.15z M484.63,697.85c-1.23-0.08-2.46-0.16-3.68-0.23
			c0,0.08-0.01,0.16-0.01,0.24C482.17,697.85,483.41,697.85,484.63,697.85c0.73,0.2,1.45,0.49,2.19,0.58
			c2.55,0.31,5.11,0.55,7.67,0.82c1.24,0,2.48,0,3.72,0c-1.24,0-2.49,0-3.73,0c-0.72-0.21-1.44-0.51-2.17-0.6
			C489.75,698.33,487.19,698.1,484.63,697.85z M566.92,705.73c-0.01,0.1-0.02,0.21-0.02,0.31c2.48,0.21,4.97,0.41,7.45,0.62
			c0.01-0.1,0.02-0.2,0.02-0.3C571.89,706.15,569.4,705.94,566.92,705.73z M-15.65,651.31c-0.01,0.09-0.02,0.18-0.02,0.28
			c1.54,0.12,3.07,0.24,4.61,0.36c0.01-0.08,0.01-0.16,0.02-0.25C-12.58,651.57-14.11,651.44-15.65,651.31z M42.17,656.59
			c0-0.05,0-0.09,0.01-0.14c-1,0-2,0-3,0c0,0.05,0,0.09,0,0.14C40.17,656.59,41.17,656.59,42.17,656.59z M52.9,657.55
			c0-0.04,0.01-0.07,0.01-0.11c-1.06,0-2.13,0-3.19,0c0,0.04-0.01,0.07-0.01,0.11C50.77,657.55,51.83,657.55,52.9,657.55z
			 M577,706.81c0,0.05,0,0.1,0,0.16c1.01,0,2.02,0,3.04,0c0-0.05,0-0.1,0-0.16C579.02,706.81,578.01,706.81,577,706.81z
			 M586.72,707.49c0-0.04,0-0.09,0-0.13c-0.98,0-1.96,0-2.95,0c0,0.04,0,0.09,0,0.13C584.75,707.49,585.73,707.49,586.72,707.49z
			 M520.93,701.61c0,0.04,0,0.09,0,0.13c0.88,0,1.77,0,2.65,0c0-0.04,0-0.09,0-0.13C522.7,701.61,521.81,701.61,520.93,701.61z
			 M68.71,659c0-0.04,0-0.09,0-0.13c-0.91,0-1.82,0-2.73,0c0,0.04,0,0.09,0.01,0.13C66.9,659,67.81,659,68.71,659z M518.33,701.27
			c0-0.06,0-0.11,0-0.17c-0.9,0-1.81,0-2.71,0c0,0.06,0,0.11,0,0.17C516.52,701.27,517.42,701.27,518.33,701.27z M395.06,674.91
			c-0.23,0.31-0.48,0.6-0.45,0.64c0.21,0.26,0.48,0.49,0.76,0.66c0.05,0.03,0.45-0.38,0.43-0.41
			C395.62,675.5,395.37,675.25,395.06,674.91z M10.22,653.73c0-0.05,0-0.1,0-0.15c-0.91,0-1.83,0-2.74,0c0,0.05,0,0.1,0,0.15
			C8.39,653.73,9.31,653.73,10.22,653.73z M444.3,694.17c0.04-0.09,0.07-0.18,0.11-0.27c-0.93,0-1.86,0-2.78,0
			c0,0.05,0,0.09-0.01,0.14C442.51,694.08,443.41,694.12,444.3,694.17z M23.76,654.99c0.04,0.05,0.08,0.1,0.12,0.15
			c0.83,0,1.66,0,2.49,0c0-0.05,0-0.1-0.01-0.15C25.49,654.99,24.62,654.99,23.76,654.99z M55.45,657.91c0,0.04,0,0.09,0.01,0.13
			c0.9,0,1.79,0,2.69,0c0-0.04,0-0.09,0-0.13C57.25,657.91,56.35,657.91,55.45,657.91z M447.08,694.4c0,0.04,0,0.08,0,0.12
			c0.69,0,1.38,0,2.07,0c0-0.04,0-0.08,0-0.12C448.46,694.4,447.77,694.4,447.08,694.4z M500.79,699.62
			c-0.03,0.05-0.07,0.1-0.1,0.15c0.72,0,1.44,0,2.16,0c0-0.05,0-0.1-0.01-0.15C502.16,699.62,501.48,699.62,500.79,699.62z
			 M538.41,703.14c0-0.04,0-0.07,0-0.11c-0.76,0-1.51,0-2.27,0c0,0.04,0,0.07,0,0.11C536.9,703.14,537.66,703.14,538.41,703.14z
			 M548.51,704.12c-0.01-0.06-0.02-0.11-0.03-0.17c-0.74,0-1.47,0-2.21,0c0,0.06,0,0.11,0,0.17
			C547.01,704.12,547.76,704.12,548.51,704.12z M122.9,663.8c0-0.03,0-0.06,0-0.09c-0.73,0-1.47,0-2.2,0c0,0.03,0,0.06,0,0.09
			C121.43,663.8,122.17,663.8,122.9,663.8z M114.6,663.19c0,0.03,0,0.07,0,0.1c0.69,0,1.38,0,2.08,0c0-0.03,0-0.07,0-0.1
			C115.98,663.19,115.29,663.19,114.6,663.19z M476.22,697.26c0,0.06,0,0.11,0,0.17c0.81,0,1.61,0,2.42,0c0-0.06,0-0.11,0-0.17
			C477.83,697.26,477.02,697.26,476.22,697.26z M106.02,662.35c0-0.04,0-0.07,0-0.11c-0.74,0-1.47,0-2.21,0c0,0.04,0,0.07,0,0.11
			C104.55,662.35,105.29,662.35,106.02,662.35z M90.23,660.92c0-0.04,0-0.08,0-0.11c-0.75,0-1.5,0-2.25,0c0,0.04,0,0.08,0,0.11
			C88.74,660.92,89.49,660.92,90.23,660.92z M82.51,660.19c-0.11,0.06-0.17,0.1-0.22,0.13c0.14,0.05,0.27,0.14,0.41,0.14
			c0.6,0.02,1.21,0.01,1.81,0.01c0-0.05,0-0.1,0-0.15C83.83,660.28,83.14,660.24,82.51,660.19z M79.18,659.96
			c-0.03-0.04-0.06-0.07-0.1-0.11c-0.67,0-1.35,0-2.02,0c0,0.04,0,0.07,0,0.11C77.77,659.96,78.47,659.96,79.18,659.96z
			 M74.04,659.48c0-0.04,0-0.08,0-0.12c-0.77,0-1.54,0-2.32,0c0,0.04,0,0.08,0,0.12C72.49,659.48,73.27,659.48,74.04,659.48z
			 M63.21,658.64c0.09-0.06,0.14-0.09,0.2-0.13c-0.14-0.05-0.28-0.15-0.42-0.15c-0.62-0.02-1.24-0.01-1.86-0.01
			c0,0.06,0,0.13,0,0.19C61.82,658.57,62.53,658.6,63.21,658.64z M44.93,656.96c0,0.04,0,0.07,0,0.11c0.73,0,1.45,0,2.18,0
			c0-0.04,0-0.07,0-0.11C46.38,656.96,45.66,656.96,44.93,656.96z M33.81,655.96c0,0.04,0,0.09,0,0.13c0.76,0,1.52,0,2.29,0
			c0-0.04,0-0.09,0-0.13C35.34,655.96,34.57,655.96,33.81,655.96z M2.13,653.06c0,0.05-0.01,0.11-0.01,0.17c0.78,0,1.56,0,2.34,0
			c0-0.05,0-0.11,0-0.17C3.68,653.06,2.9,653.06,2.13,653.06z M417.78,691.56c0,0.01,0,0.03,0,0.04c0.54,0,1.07,0,1.61,0
			c0-0.01,0-0.03,0-0.04C418.85,691.56,418.32,691.56,417.78,691.56z M429.06,692.63c0-0.04,0-0.09,0-0.13c-0.61,0-1.21,0-1.82,0
			c0,0.04,0,0.09,0,0.13C427.84,692.63,428.45,692.63,429.06,692.63z M541.43,703.48c0,0.05,0,0.09,0,0.14c0.61,0,1.21,0,1.82,0
			c0-0.05,0-0.09,0-0.14C542.64,703.48,542.03,703.48,541.43,703.48z M152.47,666.57c0,0.03,0.01,0.06,0.01,0.09
			c0.55,0,1.1,0,1.64,0c0-0.03,0-0.06,0-0.09C153.57,666.57,153.02,666.57,152.47,666.57z M169.85,668.08c0-0.02,0-0.03,0-0.05
			c-0.53,0-1.06,0-1.58,0c0,0.02,0,0.03,0,0.05C168.8,668.08,169.32,668.08,169.85,668.08z M141.85,665.63c0,0.01,0,0.03,0,0.04
			c0.52,0,1.04,0,1.56,0c0-0.01,0-0.03,0-0.04C142.89,665.63,142.37,665.63,141.85,665.63z M138.21,665.25
			c-0.02-0.03-0.03-0.06-0.05-0.09c-0.52,0-1.03,0-1.55,0c0,0.03,0,0.06,0,0.09C137.15,665.25,137.68,665.25,138.21,665.25z
			 M352.95,685.28c-0.01,0.03-0.01,0.06-0.02,0.09c0.54,0,1.08,0,1.62,0c0-0.03,0-0.06,0-0.09
			C354.02,685.28,353.48,685.28,352.95,685.28z M457.96,695.47c0-0.05,0-0.1,0-0.15c-0.64,0-1.27,0-1.91,0c0,0.05,0,0.1,0,0.15
			C456.68,695.47,457.32,695.47,457.96,695.47z M367.85,686.72c0,0.02,0,0.04,0,0.06c0.54,0,1.08,0,1.62,0c0-0.02,0-0.04,0-0.06
			C368.93,686.72,368.39,686.72,367.85,686.72z M374.14,687.33c0.01-0.01,0.05-0.04,0.09-0.06c-0.07-0.03-0.14-0.07-0.21-0.08
			c-0.44-0.01-0.87,0-1.31,0c0,0.05,0,0.1,0,0.14C373.18,687.33,373.65,687.33,374.14,687.33z M109.58,662.73c0,0.03,0,0.06,0,0.08
			c0.55,0,1.11,0,1.66,0c0-0.03,0-0.06,0-0.08C110.69,662.73,110.14,662.73,109.58,662.73z M29.35,655.51c0,0.05,0,0.09,0,0.14
			c0.66,0,1.32,0,1.98,0c0-0.05,0-0.09,0-0.14C30.67,655.51,30.01,655.51,29.35,655.51z M392.2,689.1c0,0.03,0,0.06,0,0.09
			c0.59,0,1.19,0,1.78,0c0-0.03,0-0.06,0-0.09C393.38,689.1,392.79,689.1,392.2,689.1z M453.48,695.01c0-0.04,0-0.08,0-0.13
			c-0.6,0-1.2,0-1.81,0c0,0.04,0,0.08,0,0.13C452.27,695.01,452.87,695.01,453.48,695.01z M438.63,693.57c0-0.03,0-0.07,0-0.1
			c-0.51,0-1.02,0-1.53,0c0,0.03,0,0.07,0,0.1C437.61,693.57,438.12,693.57,438.63,693.57z M407.53,690.56c0,0.03,0,0.07,0,0.1
			c0.62,0,1.24,0,1.87,0c0-0.03,0-0.07,0-0.1C408.78,690.56,408.16,690.56,407.53,690.56z M399.16,689.71c0-0.02,0-0.04,0-0.06
			c-0.53,0-1.07,0-1.6,0c0,0.02,0,0.04,0,0.06C398.1,689.71,398.63,689.71,399.16,689.71z M432.06,692.94
			c0.03,0.05,0.06,0.1,0.09,0.15c0.57,0,1.14,0,1.71,0c0-0.05,0-0.1,0-0.15C433.26,692.94,432.66,692.94,432.06,692.94z
			 M100.52,661.88c0-0.04,0-0.08,0-0.13c-0.64,0-1.29,0-1.93,0c0,0.04,0,0.08,0,0.13C99.23,661.88,99.88,661.88,100.52,661.88z
			 M504.44,683.94c-0.87-0.25-1.05-0.35-1.22-0.34c-0.09,0.01-0.27,0.28-0.25,0.3c0.12,0.15,0.27,0.34,0.44,0.36
			C503.59,684.29,503.8,684.15,504.44,683.94z M384.43,688.24c0-0.02,0-0.03,0-0.05c-0.44,0-0.88,0-1.32,0c0,0.02,0,0.03,0,0.05
			C383.55,688.24,383.99,688.24,384.43,688.24z M387.96,688.62c0,0.05,0,0.11,0,0.16c0.39-0.03,0.78-0.06,1.17-0.08
			C388.74,688.67,388.35,688.65,387.96,688.62z M404.53,690.21c-0.01-0.03-0.01-0.06-0.02-0.08c-0.38,0-0.76,0-1.14,0
			c0,0.03,0,0.06,0,0.08C403.75,690.21,404.14,690.21,404.53,690.21z M422.43,691.97c0.01,0.04,0.02,0.08,0.02,0.11
			c0.44,0,0.89,0,1.33,0c0-0.04,0-0.08,0-0.11C423.33,691.97,422.88,691.97,422.43,691.97z M364.32,686.32c0-0.02,0-0.05,0-0.07
			c-0.46,0-0.91,0-1.37,0c0,0.02,0,0.05,0,0.07C363.41,686.32,363.86,686.32,364.32,686.32z M93.31,661.3c0,0.02,0,0.03,0,0.05
			c0.43,0,0.85,0,1.28,0c0-0.02,0-0.03,0-0.05C94.16,661.3,93.74,661.3,93.31,661.3z M132.52,664.71c0-0.02,0-0.04,0-0.06
			c-0.44,0-0.88,0-1.32,0c0,0.02,0,0.04,0,0.06C131.64,664.71,132.08,664.71,132.52,664.71z M412.81,690.99
			c0.03,0.08,0.06,0.15,0.08,0.23c0.42-0.04,0.85-0.08,1.27-0.11C413.71,691.06,413.26,691.02,412.81,690.99z M125.92,664.1
			c0.03,0.07,0.05,0.14,0.08,0.22c0.4-0.03,0.81-0.07,1.21-0.1C126.78,664.18,126.35,664.14,125.92,664.1z M319.12,681.99
			c0-0.01,0-0.01,0-0.02c-0.26,0-0.53,0-0.79,0c0,0.01,0,0.01,0,0.02C318.59,681.99,318.85,681.99,319.12,681.99z M324.03,682.54
			c0-0.05,0-0.11,0-0.16c-0.28,0-0.56,0-0.83,0c-0.02,0-0.04,0.06-0.06,0.1C323.43,682.5,323.73,682.52,324.03,682.54z
			 M328.36,682.88c0,0.03,0,0.07,0,0.1c0.28,0,0.57,0,0.85,0C328.93,682.94,328.64,682.91,328.36,682.88z M337.95,683.87
			c0,0.02,0,0.05,0,0.07c0.35,0.02,0.69,0.04,1.04,0.07c0-0.05,0-0.09,0.01-0.14C338.64,683.87,338.29,683.87,337.95,683.87z
			 M344.19,684.42c0-0.02,0-0.03,0-0.05c-0.34,0-0.67,0-1.01,0c0,0.02,0,0.03,0,0.05C343.52,684.42,343.86,684.42,344.19,684.42z
			 M358.72,685.79c0,0.02,0,0.04,0,0.06c0.28,0,0.57,0,0.85,0c0-0.02,0-0.04,0-0.06C359.29,685.79,359.01,685.79,358.72,685.79z
			 M147.92,666.16c-0.02-0.02-0.04-0.05-0.05-0.07c-0.29,0-0.58,0-0.88,0c0,0.02,0,0.05,0,0.07
			C147.3,666.16,147.61,666.16,147.92,666.16z M307.77,681.01c0,0.01,0,0.01,0,0.02c0.3,0,0.6,0,0.9,0c0-0.01,0-0.01,0-0.02
			C308.37,681.01,308.07,681.01,307.77,681.01z M158.88,667.1C158.88,667.09,158.88,667.09,158.88,667.1
			c-0.29-0.01-0.57-0.01-0.85-0.01c0,0,0,0.01,0,0.01C158.31,667.1,158.6,667.1,158.88,667.1z M210.73,671.96
			c0-0.05,0.01-0.09,0.01-0.14c-0.22,0.03-0.45,0.06-0.67,0.1C210.29,671.93,210.51,671.94,210.73,671.96z M200.62,670.93
			C200.62,670.93,200.62,670.93,200.62,670.93c-0.28,0-0.55,0-0.83,0c0,0,0,0,0,0C200.07,670.93,200.35,670.93,200.62,670.93z"/>
		<path d="M108.59,756.62c0.59-0.52,1.26-0.98,1.75-1.58c0.43-0.53,1.06-1.35,0.91-1.83c-0.6-1.89,0.38-3.61,0.3-5.42
			c-0.08-1.73-0.04-3.47-0.07-5.21c-0.01-0.48,0.02-0.99-0.13-1.43c-1.48-4.46-0.68-9.05-0.83-13.58c-0.03-0.96,0-1.92-0.02-2.88
			c-0.01-1.1-0.55-1.61-1.67-1.47c-0.4,0.05-0.8,0.12-1.19,0.09c-2.21-0.18-3.39-1.62-2.66-3.68c1.15-3.26,0.86-6.63,1.16-9.95
			c0.37-3.97,0.57-7.96,0.9-11.94c0.08-0.94,0.35-1.86,0.53-2.72c2.32-0.44,169.25,15.68,172.37,16.65
			c-0.36,3.45,0.49,6.98-1.02,10.5c-0.76,1.76-0.75,3.9-0.83,5.88c-0.06,1.74,0.29,3.5,0.37,5.25c0.06,1.28,0.63,1.89,1.9,1.94
			c1.67,0.06,3.33,0.21,5,0.23c1.27,0.02,2.54-0.11,3.93-0.18c0.15-0.33,0.42-0.67,0.46-1.03c0.35-3.65,0.43-7.29,0.11-10.97
			c-0.31-3.47-0.07-6.99-0.07-10.42c2.01-0.46,40.37,3.24,43.82,4.13c0,2.93,0.04,5.86-0.03,8.8c-0.02,0.69-0.2,1.51-0.62,2.02
			c-1.57,1.93-1.61,4.18-1.31,6.38c0.43,3.24,0.01,6.38-0.57,9.53c-0.47,2.55-0.61,5.03,0.62,7.48c0.87,1.73,0.45,3.6,0.02,5.41
			c-3.04,0-6.08,0-9.12,0c0.12-1.75,0.36-3.5,0.35-5.25c-0.03-3.97-0.24-7.95-0.26-11.92c-0.01-1.09,0.32-2.18,0.58-3.26
			c0.14-0.59,0.47-1.14,0.81-1.93c-1,0-1.79-0.12-2.53,0.02c-4.94,0.95-9.86,0.57-14.79-0.03c-0.73-0.09-1.48-0.01-2.22-0.01
			c-0.06,0.18-0.11,0.36-0.17,0.54c0.69,0.45,1.39,0.89,2.06,1.36c0.84,0.59,1.78,1.1,2.47,1.83c0.91,0.96,0.83,2.67-0.2,3.44
			c-0.92,0.68-2.03,1.22-3.14,1.52c-1.43,0.39-1.86,0.66-1.9,2.2c-0.1,3.83-0.17,7.66-0.25,11.49c-25.27,0-50.54,0-75.81,0
			c0.06-1.16,0.11-2.32,0.18-3.6c-3.17-0.29-6.13-1.11-9.41-0.45c0.4,1.49,0.74,2.77,1.08,4.05c-2.24,0-4.48,0-6.72,0
			c-0.18-1.82-0.09-3.73-0.61-5.45c-0.88-2.91-0.85-5.83-0.86-8.78c0-2.16,0.02-4.32-0.02-6.47c-0.01-0.67-0.19-1.33-0.28-1.97
			c-1.93,0.21-3.57,0.43-5.22,0.54c-0.5,0.03-1.4-0.19-1.46-0.44c-0.31-1.34-1.45-1.06-2.28-1.31c-0.79-0.23-1.64-0.27-2.66-0.42
			c-1.2,5.55-1.37,11.38-2.56,17.05c-1,0-1.71,0.06-2.42-0.01c-5.08-0.53-10.15-1.15-15.24-1.6c-2.29-0.2-4.62-0.19-6.91-0.02
			c-1.43,0.11-2,0.9-1.6,2.11c0.77,2.31,0.92,4.91,2.78,6.78C151.78,756.62,130.18,756.62,108.59,756.62z M235.24,717.29
			c-0.29,3.79-0.59,7.57-0.85,11.36c-0.04,0.58-0.05,1.3,1.14,1.45C235.81,725.8,235.99,721.56,235.24,717.29z M145.16,748.78
			c0.21-0.06,0.42-0.11,0.63-0.17c0.15-1,0.39-2,0.4-3c0-0.39-0.46-1.02-0.84-1.13c-0.77-0.23-1.24,0.39-1.12,1.08
			C144.43,746.65,144.84,747.71,145.16,748.78z M191.76,722.75c-0.59,0.87-0.84,1.7,0,2.42
			C191.76,724.37,191.76,723.56,191.76,722.75z M120.35,744.88c0.2-0.36,0.46-0.63,0.43-0.86c-0.02-0.18-0.39-0.33-0.6-0.49
			c-0.13,0.25-0.33,0.49-0.37,0.75C119.8,744.42,120.08,744.59,120.35,744.88z M199.32,727.14c-0.2,0.08-0.4,0.12-0.4,0.17
			c-0.02,0.58-0.01,1.17-0.01,1.76c0.4-0.23,0.56-0.49,0.57-0.76C199.48,727.93,199.38,727.55,199.32,727.14z M122.11,720.06
			c0.04,0,0.09,0,0.13,0c0-0.44,0-0.88,0-1.32c-0.04,0-0.09,0-0.13,0C122.11,719.18,122.11,719.62,122.11,720.06z M196.48,727.21
			c0.05,0.05,0.09,0.1,0.13,0.15c0.04-0.06,0.13-0.12,0.13-0.18c0.01-0.45,0.01-0.9,0.01-1.35c-0.09,0-0.18,0-0.27,0
			C196.48,726.3,196.48,726.76,196.48,727.21z"/>
		<path d="M-17.12,682.7c4.93,0.4,9.87,0.76,14.8,1.22c9.15,0.86,18.29,1.77,27.43,2.67c9.14,0.89,18.28,1.8,27.43,2.67
			c7.79,0.75,15.59,1.44,23.38,2.19c7.55,0.73,15.1,1.51,22.65,2.25c1.11,0.11,2.23,0.14,3.34,0.23c1.12,0.08,1.69,0.61,1.73,1.83
			c0.06,1.62,0.05,3.18-0.69,4.68c-0.31,0.63-0.52,1.36-0.56,2.06c-0.25,4.15-0.43,8.3-0.63,12.45c-0.06,1.23-0.02,2.42,1.94,2.54
			c-1.07,0.58-1.77,0.93-2.46,1.33c-1.53,0.9-2.5,2.16-2.76,3.98c-0.61,4.27-1.29,8.53-1.94,12.8c-0.16,1.02-0.3,2.05-0.46,3.18
			c-0.91,0.11-1.76,0.21-2.72,0.33c-0.42,1.64,0.04,3.09,1.24,4.1c0.85,0.71,0.89,1.44,0.83,2.31c-0.16,2.23-0.23,4.48-0.57,6.69
			c-0.26,1.73,0.08,3.15,1.23,4.42c-10.72,0-21.43,0-32.15,0c-0.02-0.24,0.05-0.53-0.06-0.7c-0.24-0.35-0.58-0.64-0.88-0.95
			c-0.29,0.32-0.63,0.61-0.87,0.96c-0.12,0.17-0.08,0.46-0.11,0.7c-16.15,0-32.31,0-48.46,0c-0.3-0.33-0.55-0.74-0.92-0.96
			c-1-0.59-1.16-0.46-1.48,0.96c-2.4,0-4.8,0-7.2,0c0.3-1.24-0.1-2.29-0.82-3.41c-3.39,0.78-6.74,1.22-10.15,0.61
			c-1.13-0.2-1.79,0.41-1.8,1.63c0,0.39-0.11,0.78-0.18,1.17c-2.72,0-5.44,0-8.16,0C-17.12,731.98-17.12,707.34-17.12,682.7z
			 M68.04,724.52c-0.28,0.19-0.51,0.29-0.67,0.45c-1.83,1.85-1.84,2.08,0.19,3.58c0.89,0.65,1.19,1.43,0.99,2.49
			c-0.27,1.44,0.08,2.74,1.26,3.65c1.17,0.9,1,1.82,0.29,2.96c-1.74-0.16-3.44-0.32-5.11-0.47c-0.7,3.14-0.11,4.41,2.37,6.01
			c0.59,0.38,1.17,1.12,1.31,1.79c0.39,1.87,0.58,3.78,0.78,5.68c0.17,1.6,0.95,2.57,2.46,3.2c4.22,1.77,8.13,0.88,11.9-1.25
			c1.72-0.97,2.58-2.5,2.69-4.51c0.21-3.82,0.46-7.62,0.1-11.48c-0.4-4.35-0.36-8.75-0.41-13.13c-0.02-1.7,0.21-3.41,0.35-5.31
			c-3.21,2.34-6.78,1.72-10.3,1.38c-0.64-0.06-1.69-0.47-1.78-0.9c-0.33-1.48-1.38-1.95-2.65-2.46c1.12-0.24,2.18-0.15,3.22-0.26
			c1.01-0.11,2.29,0.02,2.55-1.76c-1.49-0.22-2.85-0.42-4.21-0.61c0-0.16,0-0.31,0-0.47c1.13-0.11,2.27-0.26,3.4-0.32
			c1.1-0.06,1.82-0.42,1.79-1.69c-0.25-0.16-0.43-0.37-0.64-0.39c-3.25-0.32-6.51-0.64-9.77-0.9c-0.32-0.03-0.92,0.26-0.95,0.48
			c-0.06,0.4,0.07,0.98,0.35,1.24c0.6,0.56,1.35,0.97,2.42,1.7c-1.49,0-2.48,0-3.61,0c0.51,1.8,2.56,1.59,3.45,2.94
			c-1.1,0-2.1,0-3.27,0c0,2.11-0.11,4.14,0.06,6.13C66.67,722.95,67.41,723.57,68.04,724.52z M44.75,715.39
			c-1.26,0.66-1.78,1.62-1.95,2.77c-0.82,5.53-1.75,11.04-2.39,16.59c-0.49,4.2-0.61,8.44-0.9,12.67c-0.21,3.14,0.72,4.3,3.87,4.93
			c3.27,0.65,6.41,0.07,9.35-1.25c2.87-1.29,4.65-3.4,4.55-6.89c-0.16-5.91-0.06-11.82-0.09-17.73c0-0.42-0.14-0.85-0.29-1.7
			c-0.59,1.3-0.98,2.17-1.37,3.03c-0.32-1.72-0.28-3.25,0.81-4.61c0.39-0.49,0.53-1.3,0.53-1.97c0-1.75-0.14-3.51-0.2-5.26
			c-0.03-0.92-0.15-1.76-1.29-2.18c-0.18,0.31-0.29,0.81-0.55,0.91c-0.37,0.13-1.16-0.2-1.24-0.06c-0.89,1.7-2.77,1.43-4.14,2.12
			C47.41,717.76,46.21,717.33,44.75,715.39z M19.59,714.06c-0.79,1.11-0.6,2.52-0.84,3.79c-1.58,8.48-2.4,17.06-3.11,25.65
			c-0.24,2.9,0.49,4.08,3.22,4.71c4.16,0.96,8.08,0.21,11.65-2.18c1.11-0.74,1.72-1.77,1.79-3.2c0.08-1.58,0.53-3.13,0.59-4.71
			c0.06-1.72,0.42-3.45-0.26-5.2c-0.48-1.23-0.76-2.62-0.76-3.94c-0.01-4.7,0.14-9.41,0.2-14.11c0-0.19-0.2-0.38-0.29-0.53
			c-1.52,0.45-2.95,0.93-4.41,1.27c-0.67,0.15-1.57,0.28-2.08-0.03c-1.35-0.84-2.69-1.18-4.26-0.88
			C20.66,714.75,20.2,714.34,19.59,714.06z M11.16,700.11c0.99-0.25,1.34-0.72,1.06-1.76C11.17,698.59,10.75,699.02,11.16,700.11z
			 M83.31,715.73c-0.37-0.1-0.58-0.22-0.75-0.18c-0.11,0.03-0.16,0.3-0.24,0.46c0.13,0.05,0.28,0.17,0.39,0.14
			C82.88,716.09,83.02,715.94,83.31,715.73z M-7.87,730.74c0.07,0,0.14,0.01,0.21,0.01c0.03-0.45,0.05-0.9,0.08-1.34
			c-0.1,0-0.19,0-0.29-0.01C-7.87,729.84-7.87,730.29-7.87,730.74z M77.29,699.69c0.05-0.12,0.11-0.24,0.16-0.37
			c-0.34-0.16-0.68-0.31-1.02-0.47c-0.06,0.13-0.11,0.25-0.17,0.38C76.61,699.39,76.95,699.54,77.29,699.69z"/>
		<path d="M347.06,756.62c0.01-0.4,0.06-0.8,0.01-1.2c-0.33-2.93,0.41-5.67,1.32-8.41c0.41-1.25,0.76-2.72,0.5-3.96
			c-0.62-3-0.1-5.89,0.33-8.8c0.24-1.61,0.32-3.1-0.51-4.64c-0.5-0.94-0.66-2.16-0.63-3.25c0.07-2.61,0.35-5.22,0.56-8.14
			c14.86,1.52,29.52,3.02,44.5,4.55c0.01,3.28,0.04,6.44-0.26,9.6c-0.4,4.13-0.74,8.27-1.1,12.41c-0.03,0.32-0.12,0.75,0.05,0.94
			c0.93,1.11,0.58,2.26-0.03,3.5c0.93,0,1.63,0.06,2.31-0.02c0.83-0.1,1.21-0.57,1.17-1.48c-0.09-2.23-0.11-4.46-0.1-6.69
			c0.02-5.02,0.07-10.04,0.13-15.05c0.01-0.87,0.18-1.73,0.31-2.95c15.16,1.54,30.2,3.06,45.44,4.61c0,2.02,0.01,3.84,0,5.65
			c-0.02,2.47-0.2,4.86-0.77,7.32c-0.71,3.07-0.57,6.34-0.69,9.53c-0.08,2.15,0.04,4.31,0.07,6.47c-13.75,0-27.51,0-41.26,0
			c0-0.64-0.15-1.32,0.04-1.9c0.68-2.07,0.1-3.34-1.92-4.28c-0.86-0.4-1.47-0.36-2.21-0.11c-0.67,0.22-1.32,0.71-1.98,0.72
			c-2.23,0.03-4.46-0.11-6.82-0.18c-0.17,1.82-0.36,3.79-0.54,5.76c-8.32,0-16.63,0-24.95,0c0.09-2.81,0.74-5.28,3.86-6.06
			c0.15-0.69,0.24-1.24,0.38-1.78c0.14-0.54,0.38-1.06,0.46-1.6c0.13-0.89,0.11-1.78-0.84-2.29c-1.16-0.61-3.13-0.22-3.8,0.92
			c-0.6,1.01-1.25,1.58-2.49,1.35c-1.01-0.19-1.76,0.35-2.03,1.28c-0.47,1.59-0.99,3.17-0.37,4.91c0.37,1.02,0.36,2.18,0.52,3.28
			C352.82,756.62,349.94,756.62,347.06,756.62z M414.77,745.62c-2.22-1.12-4.56-1.3-6.94-1.69c-0.13,1.86,1.52,1.78,2.03,2.64
			c0.52,0.89,0.75,1.95,1.15,3.08C412.94,748.74,414.77,748.12,414.77,745.62z M364.21,742.32c0.35-0.38,0.83-0.73,0.77-0.87
			c-0.14-0.36-0.49-0.83-0.81-0.88c-0.26-0.04-0.61,0.46-0.92,0.72C363.54,741.59,363.82,741.89,364.21,742.32z"/>
		<path d="M444.46,756.62c0.56-2.39,0.85-4.83,1.54-7.22c0.54-1.87-0.17-4.1-0.24-6.17c-0.04-1.1,0.13-2.21,0.12-3.31
			c0-0.86,0.04-1.78-0.23-2.57c-0.54-1.57-0.62-3.08-0.28-4.7c0.29-1.38,0.28-2.82,0.42-4.34c0.9,0,1.61-0.06,2.3,0.01
			c10.57,1.07,21.14,2.17,31.71,3.22c10.57,1.05,21.15,2.05,31.73,3.07c8.75,0.84,17.5,1.65,26.24,2.51
			c2.08,0.2,2.55,0.65,2.49,2.72c-0.1,3.59-0.24,7.18-0.57,10.75c-0.19,2.03-0.78,4.03-1.19,6.04c-15.35,0-30.71,0-46.06,0
			c0-1.41,0-2.82,0-4.23c-0.16,0-0.32,0-0.48,0c0,1.41,0,2.82,0,4.23C476.13,756.62,460.29,756.62,444.46,756.62z"/>
		<path d="M592.24,691.34c-3.95-0.44-7.91-0.9-11.87-1.31c-5.48-0.57-10.96-1.11-16.44-1.64c-9.3-0.9-18.61-1.78-27.91-2.67
			c-11.45-1.1-22.91-2.21-34.36-3.28c-7.84-0.73-15.68-1.51-23.52-2.3c-4.37-0.44-8.74-1-13.12-1.26
			c-5.63-0.33-11.2-1.17-16.82-1.59c-5.57-0.42-11.12-1.16-16.69-1.67c-6.13-0.57-12.27-0.99-18.39-1.59
			c-7.87-0.76-15.72-1.68-23.58-2.44c-5.48-0.53-10.98-0.89-16.47-1.38c-8.19-0.74-16.38-1.55-24.58-2.29
			c-7.72-0.7-15.44-1.35-23.16-2.06c-10.34-0.94-20.68-1.95-31.02-2.86c-6.45-0.57-12.91-0.98-19.35-1.52
			c-4.11-0.34-8.22-0.76-12.33-1.16c-7.55-0.73-15.11-1.48-22.66-2.19c-9.54-0.89-19.09-1.77-28.64-2.63
			c-9.79-0.89-19.58-1.75-29.37-2.62c-4.62-0.41-9.35-0.29-13.81-1.33c-3.47-0.81-6.91-0.6-10.33-1.17
			c-2.91-0.49-5.82-1.03-8.73-1.53c-0.55-0.09-1.11-0.21-1.66-0.16c-7.94,0.73-15.8-0.22-23.67-0.95
			c-9.63-0.89-19.27-1.67-28.9-2.48c-9.39-0.79-18.79-1.6-28.19-2.35c-10.9-0.87-21.81-1.65-32.7-2.56
			c-9.16-0.77-18.3-1.69-27.45-2.54c-7.88-0.73-15.75-1.44-23.63-2.15c0-1.28,0-2.56,0-3.84c3.25,0.29,6.51,0.57,9.76,0.89
			c1.42,0.14,2.83,0.37,4.24,0.5c3.82,0.36,7.64,0.66,11.46,1.04c4.93,0.5,9.84,1.05,14.77,1.58c1.01,0.11,2.13-0.03,2.61,1.25
			c0.07,0.18,0.36,0.33,0.58,0.37c1.85,0.34,3.7,0.75,5.57,0.96c2.93,0.33,5.88,0.56,8.82,0.76c0.86,0.06,1.94,0.21,2.56-0.21
			c1.94-1.32,3.99-0.88,6.01-0.73c9.8,0.73,19.59,1.5,29.39,2.29c5.89,0.48,11.78,1.02,17.68,1.55c8.2,0.73,16.4,1.48,24.6,2.2
			c6.69,0.59,13.38,1.15,20.07,1.71c9.24,0.77,18.48,1.48,27.71,2.3c9.79,0.88,19.57,1.88,29.36,2.8
			c6.68,0.63,13.37,1.19,20.05,1.82c2.21,0.21,4.41,0.56,6.61,0.78c1.58,0.16,3.17,0.21,4.76,0.31c0.32,0.02,0.67-0.1,0.95-0.01
			c3.48,1.18,7.12,0.58,10.67,1.01c3.55,0.43,7.1,0.93,10.66,1.33c3.17,0.36,6.35,0.63,9.53,0.94c4.28,0.43,8.55,0.92,12.83,1.28
			c1.81,0.15,3.66-0.07,5.47,0.09c6.67,0.58,13.33,1.29,20,1.88c4.61,0.41,9.23,0.71,13.84,1.08c6.29,0.51,12.57,1.06,18.86,1.56
			c9.71,0.78,19.43,1.52,29.14,2.31c3.11,0.25,6.2,0.65,9.31,0.92c4.53,0.39,9.07,0.67,13.6,1.1c4.61,0.43,9.2,1.06,13.81,1.47
			c7.55,0.67,15.12,1.18,22.67,1.85c5.09,0.45,10.16,1.06,15.24,1.57c4.21,0.42,8.42,0.82,12.63,1.17
			c5.87,0.49,11.74,0.9,17.61,1.37c4.44,0.35,8.89,0.71,13.33,1.12c1.66,0.15,3.3,0.55,4.96,0.7c7.16,0.64,14.32,1.22,21.48,1.84
			c7.8,0.68,15.59,1.35,23.39,2.07c3.02,0.28,6.03,0.69,9.05,0.97c2.46,0.23,4.93,0.32,7.39,0.52c1.66,0.14,3.35,0.21,4.98,0.56
			c5.19,1.13,10.5,0.5,15.72,1.21c5.05,0.69,10.17,0.93,15.24,1.52c3.48,0.4,6.94,1.05,10.41,1.58
			C592.24,688.46,592.24,689.9,592.24,691.34z"/>
		<path d="M559.61,756.62c-0.16-1.31,0.06-2.52,0.82-3.64c0.68-1,0.48-1.89-0.33-2.8c-2.98-3.36-3.45-4.14-2.47-11
			c0.54-0.07,1.15-0.24,1.74-0.2c8.73,0.66,17.45,1.37,26.18,2.02c2.22,0.17,4.45,0.17,6.68,0.25c0,5.12,0,10.24,0,15.36
			C581.37,756.62,570.49,756.62,559.61,756.62z"/>
		<path class="st0" d="M173.37,756.62c-1.86-1.87-2.01-4.47-2.78-6.78c-0.4-1.2,0.17-2,1.6-2.11c2.29-0.17,4.62-0.18,6.91,0.02
			c5.09,0.44,10.16,1.07,15.24,1.6c0.7,0.07,1.42,0.01,2.42,0.01c1.19-5.67,1.36-11.5,2.56-17.05c1.02,0.15,1.87,0.19,2.66,0.42
			c0.83,0.24,1.97-0.04,2.28,1.31c0.06,0.26,0.96,0.47,1.46,0.44c1.65-0.1,3.3-0.33,5.22-0.54c0.1,0.64,0.27,1.3,0.28,1.97
			c0.04,2.16,0.02,4.31,0.02,6.47c0.01,2.95-0.02,5.88,0.86,8.78c0.52,1.72,0.43,3.63,0.61,5.45
			C199.6,756.62,186.48,756.62,173.37,756.62z"/>
		<path class="st0" d="M303.4,756.62c0.08-3.83,0.15-7.66,0.25-11.49c0.04-1.54,0.47-1.8,1.9-2.2c1.11-0.3,2.22-0.84,3.14-1.52
			c1.04-0.77,1.12-2.47,0.2-3.44c-0.7-0.73-1.63-1.25-2.47-1.83c-0.67-0.47-1.37-0.91-2.06-1.36c0.06-0.18,0.11-0.36,0.17-0.54
			c0.74,0,1.49-0.08,2.22,0.01c4.93,0.59,9.85,0.97,14.79,0.03c0.74-0.14,1.53-0.02,2.53-0.02c-0.34,0.79-0.66,1.34-0.81,1.93
			c-0.26,1.07-0.59,2.17-0.58,3.26c0.03,3.97,0.23,7.95,0.26,11.92c0.01,1.75-0.23,3.5-0.35,5.25
			C316.19,756.62,309.79,756.62,303.4,756.62z"/>
		<path class="st0" d="M384.96,756.62c0.18-1.97,0.37-3.94,0.54-5.76c2.36,0.08,4.59,0.21,6.82,0.18c0.66-0.01,1.31-0.5,1.98-0.72
			c0.74-0.24,1.35-0.29,2.21,0.11c2.02,0.94,2.6,2.22,1.92,4.28c-0.19,0.57-0.03,1.26-0.04,1.9
			C393.92,756.62,389.44,756.62,384.96,756.62z"/>
		<path class="st0" d="M355.69,756.62c-0.16-1.1-0.15-2.26-0.52-3.28c-0.62-1.74-0.1-3.31,0.37-4.91c0.27-0.93,1.02-1.46,2.03-1.28
			c1.24,0.23,1.89-0.34,2.49-1.35c0.68-1.14,2.64-1.53,3.8-0.92c0.96,0.51,0.97,1.4,0.84,2.29c-0.08,0.55-0.33,1.06-0.46,1.6
			c-0.14,0.54-0.23,1.08-0.38,1.78c-3.12,0.78-3.77,3.25-3.86,6.06C358.57,756.62,357.13,756.62,355.69,756.62z"/>
		<path class="st0" d="M219.43,756.62c-0.34-1.28-0.68-2.56-1.08-4.05c3.28-0.66,6.24,0.16,9.41,0.45c-0.06,1.28-0.12,2.44-0.18,3.6
			C224.87,756.62,222.15,756.62,219.43,756.62z"/>
		<path class="st0" d="M-8.96,756.62c0.06-0.39,0.17-0.78,0.18-1.17c0.01-1.22,0.67-1.83,1.8-1.63c3.42,0.61,6.77,0.16,10.15-0.61
			c0.73,1.12,1.12,2.17,0.82,3.41c-0.96,0-1.92,0-2.88,0c-1.17-2.21-2.84-2.21-4.32,0C-5.12,756.62-7.04,756.62-8.96,756.62z"/>
		<path d="M-3.2,756.62c1.48-2.21,3.15-2.21,4.32,0C-0.32,756.62-1.76,756.62-3.2,756.62z"/>
		<path class="st0" d="M62.05,756.62c0.03-0.24-0.01-0.52,0.11-0.7c0.24-0.35,0.57-0.64,0.87-0.96c0.3,0.31,0.64,0.6,0.88,0.95
			c0.12,0.17,0.05,0.46,0.06,0.7C63.33,756.62,62.69,756.62,62.05,756.62z"/>
		<path class="st0" d="M11.19,756.62c0.32-1.42,0.48-1.54,1.48-0.96c0.37,0.22,0.62,0.63,0.92,0.96
			C12.79,756.62,11.99,756.62,11.19,756.62z"/>
		<path class="st0" d="M491.96,756.62c0-1.41,0-2.82,0-4.23c0.16,0,0.32,0,0.48,0c0,1.41,0,2.82,0,4.23
			C492.28,756.62,492.12,756.62,491.96,756.62z"/>
		<path d="M592.24,708.14c-0.91-0.07-1.83-0.14-3.15-0.24c1.32-0.1,2.24-0.17,3.15-0.24C592.24,707.82,592.24,707.98,592.24,708.14z
			"/>
		<path d="M90.68,513.32c4.35-4.87,9.66-8.3,13.75-13.35c-0.62-0.64-1.11-1.24-1.7-1.71c-12.16-9.82-23.36-20.65-33.68-32.38
			c-11.71-13.3-22.03-27.62-30.93-42.95C24.4,399.32,14.5,374.2,8.54,347.55c-2.88-12.9-4.72-25.95-5.66-39.13
			c-0.8-11.18-0.96-22.37-0.34-33.57c0.98-17.69,3.49-35.15,7.82-52.33c7.47-29.65,19.6-57.25,36.41-82.8
			c14.6-22.2,32.15-41.78,52.28-59.09c20.68-17.79,43.44-32.33,68.25-43.65c20.52-9.36,41.85-16.21,63.97-20.58
			c19.67-3.88,39.53-5.78,59.58-5.64c18.75,0.13,37.35,1.96,55.74,5.69c30.66,6.21,59.55,17.12,86.5,33.04
			c25.96,15.34,48.82,34.43,68.52,57.27c23.27,26.98,40.52,57.39,51.49,91.32c4.91,15.17,8.41,30.66,10.52,46.48
			c2.66,19.91,3.04,39.86,1.27,59.85c-2.07,23.45-7.09,46.26-15.06,68.43c-7.32,20.34-16.84,39.56-28.79,57.56
			c-14.42,21.7-31.42,41.14-51.08,58.26c-12.76,11.12-26.41,20.97-40.78,29.87c-0.47,0.29-0.92,0.62-1.49,1
			c0.27,0.7,0.48,1.37,0.79,2c0.28,0.56,0.67,1.07,1.05,1.65c-0.27,0.48-0.54,0.95-0.84,1.47c0.2,0.27,0.36,0.55,0.57,0.78
			c2.56,2.75,5.13,5.5,7.69,8.24c0.33,0.35,0.67,0.69,0.96,1.08c0.93,1.25,0.86,1.82-0.4,2.79c-0.44,0.34-0.95,0.59-1.43,0.86
			c-14.65,8.28-29.93,15.17-45.72,20.95c-17.44,6.38-35.32,11.21-53.61,14.38c-9.52,1.65-19.09,3-28.75,3.52
			c-8.38,0.45-16.76,1.02-25.15,1.08c-10.79,0.08-21.57-0.45-32.32-1.51c-14.5-1.43-28.83-3.78-42.99-7.16
			c-21.22-5.05-41.68-12.23-61.36-21.65c-18.59-8.9-36.12-19.54-52.5-32.06C92.65,515.2,91.77,514.3,90.68,513.32z M335.82,237.16
			c0.14,0.2,0.28,0.4,0.42,0.61c1.27,0,2.54-0.01,3.81,0c19.1,0.25,38.21,0.49,57.31,0.75c27.5,0.37,55,0.7,82.5,1.12
			c14.87,0.22,29.74,0.59,44.6,0.88c2.97,0.06,2.97,0.04,2.47-2.96c-0.03-0.16-0.05-0.32-0.08-0.47
			c-3.36-18.83-9.04-36.95-16.99-54.34c-9.13-19.98-20.97-38.25-35.27-54.92c-0.36-0.42-0.73-0.86-1.15-1.22
			c-1.34-1.18-2.55-0.8-2.91,1c-0.25,1.25-0.3,2.54-0.43,3.81c-1.02,10.01-5.14,18.55-12.24,25.65c-5.83,5.83-13.11,9.07-20.82,11.4
			c-11.48,3.47-23.04,3.31-34.52,0.04c-4.06-1.16-8.1-2.54-11.91-4.35c-3.95-1.88-5.02-5.97-3.32-10.3c1.56-3.96,4.7-5.56,9.09-4.53
			c2.96,0.7,5.89,1.48,8.83,2.25c7.48,1.98,15.07,2.72,22.8,2.17c7.99-0.57,14.13-4.1,18.39-10.92c2.74-4.38,4.81-9.05,5.92-14.08
			c3-13.68-0.43-25.23-11.87-33.8c-6.26-4.69-12.57-9.33-19.38-13.26c-6.34-3.65-12.89-6.68-20.03-8.4
			c-9.97-2.4-20.05-4.01-30.31-4.46c-12.73-0.55-25.2,1.16-37.47,4.42c-6.73,1.78-13.32,3.99-19.71,6.75
			c-0.92,0.4-2.06,0.61-2.19,2.16c1.13,0.82,2.34,1.72,3.57,2.6c14,10,25.48,22.27,33.78,37.42c8.99,16.42,13.2,34,11.58,52.65
			c-1.92,22.14-8.96,42.47-23.19,59.94C336.55,235.46,336.25,236.36,335.82,237.16z M67.98,412.54c2.89-1.63,4.79-3.42,5.4-6.48
			c1.31-6.55,3.7-12.73,6.84-18.62c7.26-13.62,17.93-23.36,32.56-28.56c8.09-2.87,16.37-4.85,24.94-5.65
			c13.48-1.25,26.49,0.43,38.84,6.15c9.46,4.38,17.67,10.43,23.35,19.31c5.3,8.28,9.16,17.25,10.62,27.06
			c0.98,6.59,1.36,13.24-0.24,19.8c-1.05,4.32-1.94,8.68-4.75,12.43c-1.05,1.4-1.85,3.17-3.07,4.41c-3.87,3.91-7.9,7.61-12.77,10.39
			c-13.57,7.72-27.73,9.2-42.51,4.37c-2.38-0.78-4.65-2.13-6.71-3.59c-2.38-1.68-3.04-4.23-2.21-7.04c0.87-2.96,3.05-4.46,5.98-4.76
			c1.57-0.16,3.2-0.02,4.76,0.2c3.95,0.57,7.87,1.44,11.83,1.88c5.51,0.61,11.06,0.85,16.17-1.93c7.78-4.23,13.1-10.59,15.97-18.98
			c1.73-5.04,1.03-10.13,0.16-15.19c-2.1-12.22-8.5-21.77-18.49-28.92c-5.4-3.86-10.93-7.59-17.83-8.28
			c-1.43-0.14-2.86-0.24-4.3-0.35c-11.95-0.96-23.64,0.3-34.92,4.42c-5.6,2.05-10.78,4.93-14.85,9.41
			c-1.86,2.06-3.48,4.36-5.05,6.65c-5.58,8.14-8.29,17.25-8.61,27.05c-0.21,6.34,1.52,12.35,3.89,18.17
			c3.3,8.06,8.02,15.28,13.35,22.11c2.6,3.33,5.03,6.88,8.46,9.43c4.17,3.1,8.47,6.01,12.73,8.97c0.64,0.44,1.38,0.73,2.21,1.15
			c1.89-1.64,3.7-3.2,5.51-4.76c1.58-1.35,2.11-1.38,3.78-0.2c6.67,4.72,13.72,8.8,20.96,12.58c1.01,0.53,2.3,0.89,3.41,0.79
			c3.81-0.34,7.69-0.55,11.39-1.46c17.97-4.44,32.81-14.13,44.79-28.05c11.6-13.49,15.94-29.43,14.4-47.07
			c-0.67-7.68-2.53-15.14-4.43-22.57c-4.04-15.87-8.26-31.7-12.43-47.54c-1.32-5.02-2.74-10.02-4.14-15.03
			c-0.64-2.28-0.79-2.37-3.11-2.5c-1.44-0.09-2.87-0.23-4.31-0.28c-12.94-0.5-25.88-0.99-38.82-1.47
			c-11.1-0.4-22.21-0.78-33.31-1.16c-4.79-0.17-9.59-0.3-14.38-0.48c-15.26-0.59-30.51-1.21-45.77-1.8
			c-7.27-0.28-14.54-0.51-21.81-0.78c-4.87-0.18-9.75-0.39-14.62-0.55c-2.02-0.07-2.72,0.7-2.61,2.76c0.04,0.72,0.1,1.44,0.22,2.15
			c1.18,6.53,2.18,13.1,3.61,19.58c4.65,21.06,12.18,41.05,22.52,59.98C62.91,403.94,65.42,408.1,67.98,412.54z M161.96,233.46
			c-0.2-1.68-0.17-1.7-1.49-3.09c-2.35-2.47-3.85-5.3-3.82-8.78c0.04-4.58,3.11-7.05,7.62-6.19c2.73,0.52,5.11,1.81,7.39,3.31
			c5.29,3.46,10.57,6.92,15.83,10.41c4.4,2.92,9.14,4.89,14.44,5.43c2.28,0.24,2.57-0.03,2.32-2.24c-0.38-3.34-0.83-6.67-1.08-10.01
			c-0.79-10.23-0.77-20.44,0.36-30.66c1.15-10.38,3.39-20.49,6.9-30.31c6.93-19.38,18.1-36.06,32.33-50.79
			c8.08-8.36,16.94-15.81,26.3-22.69c0.74-0.54,1.39-1.2,2.14-1.85c-0.4-0.45-0.57-0.73-0.82-0.91c-0.38-0.28-0.8-0.52-1.23-0.74
			c-6.09-3.05-12.45-5.4-18.97-7.33c-11.76-3.49-23.76-5.74-35.99-6.71c-5.41-0.43-10.85-0.67-16.28-0.73
			c-3.99-0.05-8.01,0.07-11.96,0.57c-10.7,1.35-20.88,4.5-30.65,9.1c-6.46,3.04-12.53,6.69-18.3,10.87
			c-10.38,7.53-18.16,17.25-23.93,28.61c-2.55,5.01-4.57,10.23-4.69,15.98c-0.15,7.27,2.02,13.49,8.02,18.07
			c4.89,3.74,10.28,6.49,16.17,8.17c10.61,3.02,20.08,0.87,28.17-6.76c4.73-4.46,8.06-9.89,10.63-15.81c0.48-1.1,0.9-2.24,1.56-3.23
			c2.17-3.3,6.65-4.31,10.22-2.39c3.05,1.64,4.21,5.36,2.61,8.98c-3.92,8.86-9.05,16.91-16.3,23.47
			c-8.09,7.32-17.54,11.75-28.42,12.54c-12.02,0.88-22.95-2.43-32.44-9.98c-7.25-5.77-12.05-13.17-13.83-22.35
			c-0.81-4.17-1.1-8.4-0.77-12.65c0.09-1.13,0.01-2.26,0.01-3.4c-0.19-0.05-0.38-0.1-0.58-0.14
			c-25.95,29.48-45.26,62.53-54.43,101.54C80.18,231.66,120.96,232.56,161.96,233.46z M351.61,496.48c-0.95-0.65-1.59-1.1-2.25-1.53
			c-4.2-2.81-8.09-5.98-11.56-9.68c-6.48-6.91-10.35-14.87-10.54-24.51c-0.21-10.02,2.56-19.26,6.9-28.13
			c1.09-2.24,2.97-3.75,5.19-4.8c2.67-1.26,8.34,0.13,10.11,2.49c0.38,0.5,0.78,1.11,0.84,1.7c0.27,2.93,0.89,5.93,0.52,8.8
			c-0.46,3.52-1.71,6.96-2.75,10.39c-1.16,3.83-2.35,7.63-2.74,11.65c-0.14,1.49,0.01,2.83,0.56,4.2
			c3.14,7.89,8.72,13.46,16.24,17.21c5.79,2.89,12.02,4.27,18.34,5.36c2.19,0.38,4.26,0.14,6.23-1.05c1.29-0.78,2.75-1.29,4.1-1.98
			c1.18-0.6,2.14-0.47,2.94,0.62c1.21,1.67,2.89,1.92,4.71,1.38c11.24-3.38,20.46-9.58,26.16-20.02
			c5.64-10.34,6.71-21.38,3.53-32.77c-1.53-5.49-3.27-10.92-7.12-15.31c-3.32-3.78-6.6-7.63-10.24-11.09
			c-12.33-11.68-26.53-20.49-42.24-26.89c-10.05-4.09-20.49-6.82-31.29-7.76c-10.39-0.9-20.76-0.43-31.03,1.66
			c-8.48,1.73-16.69,4.31-24.8,7.31c-2.93,1.08-4.69,2.84-5.28,5.88c-0.11,0.59-0.47,1.15-0.81,1.66c-1.02,1.52-1.55,3.1-1.17,4.97
			c0.36,1.8,0.52,3.64,0.78,5.46c1.35,9.52,2.3,19.07,1.07,28.68c-0.46,3.56-1.05,7.13-1.86,10.62c-0.82,3.52-1.24,7.27-4.04,10.02
			c-0.95,3.01-2.9,5.46-4.5,8.11c-3.23,5.34-7.4,9.73-12.23,13.55c-6.81,5.38-14.49,8.74-23.17,9.49c-3.41,0.3-6.86,0.34-10.29,0.32
			c-3.14-0.02-5.97,0.74-8.61,2.46c-5.5,3.58-11.2,6.8-17.23,9.43c-0.62,0.27-1.17,0.72-1.75,1.08c0.69,1.78,2.48,1.67,3.61,2.74
			c-0.59,0.51-1.15,1-2.01,1.75c30.09,10.47,60.76,14.7,92.21,13.65c21.01-0.7,59.77-7.71,65.98-11.91
			c-1.13-0.98-2.24-1.95-3.48-3.03C349.67,497.91,350.48,497.31,351.61,496.48z M447.99,460.73c0.2,0.1,0.41,0.21,0.61,0.31
			c2.35-2.15,4.74-4.24,7.03-6.45c15.47-14.88,28.73-31.54,39.9-49.86c7.29-11.97,13.48-24.5,18.57-37.57
			c3.89-10,7.1-20.2,9.66-30.61c0.86-3.52,0.42-4.12-3.14-4.25c-11.34-0.42-22.68-0.86-34.02-1.23
			c-14.78-0.49-29.55-0.91-44.33-1.38c-10.46-0.33-20.92-0.69-31.38-1.04c-9.74-0.32-19.49-0.63-29.23-0.96
			c-8.7-0.3-17.41-0.65-26.11-0.96c-9.27-0.33-18.53-0.65-27.8-0.96c-11.74-0.39-23.48-0.75-35.23-1.14
			c-9.43-0.31-18.85-0.65-28.27-0.94c-1.32-0.04-2.64,0.08-3.82,0.12c-0.27,0.99-0.25,1.98-0.69,2.3c-1.36,0.96-0.81,2.05-0.58,3.2
			c2.65,13,5.31,26,7.92,39c0.63,3.14,1.69,3.76,4.66,2.65c4.12-1.54,8.21-3.16,12.39-4.48c11.32-3.57,22.9-5.86,34.75-6.64
			c12.57-0.83,25.14-0.63,37.53,1.53c13.71,2.39,26.58,7.46,38.93,13.83c11.09,5.72,21.23,12.76,29.88,21.81
			c8.24,8.62,14.46,18.44,17.98,29.93c3.03,9.87,4.43,19.95,4.57,30.24C447.8,458.38,447.92,459.55,447.99,460.73z M263.25,236.3
			c0-0.01,0-0.03,0-0.04c5.43,0.14,10.87,0.22,16.29,0.45c5.07,0.22,9.41-1.35,13.09-4.84c7.05-6.69,13.24-14.04,18.09-22.53
			c7.59-13.28,10.68-27.6,10.24-42.78c-0.32-11.04-2.63-21.71-6.31-32.09c-5.25-14.81-14-27.21-25.98-37.32
			c-3.54-2.99-3.61-2.97-7.23,0.14c-9.24,7.95-17.61,16.73-24.99,26.43c-5.68,7.47-10.61,15.4-14.51,23.94
			c-4.4,9.62-6.75,19.79-7.92,30.25c-1.21,10.79-1,21.53,1.19,32.21c1.71,8.34,4.79,16.24,7.37,24.3c0.4,1.24,1.33,1.4,2.45,1.42
			C251.11,235.98,257.18,236.15,263.25,236.3z M364.66,54.64c0.04-0.09,0.08-0.17,0.12-0.26c-0.43-0.17-0.85-0.37-1.29-0.49
			c-5.37-1.57-10.7-3.26-16.11-4.67c-10.14-2.63-20.44-4.51-30.86-5.62c-6.19-0.66-12.41-1.22-18.63-1.49
			c-16-0.69-31.96-0.03-47.83,2.29c-11.31,1.66-22.54,3.72-33.4,7.42c-0.37,0.13-0.69,0.39-1.46,0.83c1.09,0.1,1.63,0.17,2.18,0.2
			c8.55,0.43,17.04,1.53,25.44,3.14c15.12,2.89,29.79,7.37,43.89,13.54c5.63,2.46,10.87,2.39,16.37-0.22
			c4.4-2.08,8.94-3.88,13.52-5.56c11.38-4.17,23.07-7.05,35.17-8.08C356.06,55.3,360.36,54.98,364.66,54.64z M487.03,291.32
			c3.9,0.44,7.43,0.39,10.68-1.57c5.97-3.58,6.57-12.27,1.11-16.5c-2.26-1.76-4.82-2.77-7.74-2.79c-3.11-0.02-6.23-0.12-9.34-0.14
			c-2.58-0.02-3.12,0.48-3.21,3.02c-0.32,8.94-0.62,17.88-0.91,26.82c-0.03,0.85,0.07,1.71,0.12,2.75c2.06,0,3.92,0,6.03,0
			c0.4-9.03,0.79-17.92,1.19-26.89c2.41,0,4.47-0.13,6.51,0.03c2.83,0.22,4.47,2.25,4.45,5.23c-0.01,2.52-1.81,4.35-4.56,4.63
			c-0.4,0.04-0.8,0.02-1.2,0.04c-2.36,0.11-2.98,0.68-3.13,2.97C486.99,289.63,487.03,290.34,487.03,291.32z M91.89,280.16
			c3.76,0.54,7.14,0.12,10.05-2.28c3.15-2.6,4.25-6.8,2.95-10.88c-1.25-3.95-4.25-6.22-8.83-6.49c-2.79-0.16-5.59-0.13-8.38-0.15
			c-2.44-0.01-2.84,0.42-2.98,2.92c-0.46,8.22-0.92,16.43-1.36,24.65c-0.05,0.94-0.01,1.88-0.01,3.01c1.79,0,3.42,0,5.26,0
			c0.51-8.39,1.01-16.72,1.53-25.35c2.39,0.17,4.47,0.16,6.48,0.51c2.1,0.36,3.43,2.38,3.36,4.61c-0.07,2.4-1.32,3.93-3.62,4.33
			c-0.78,0.13-1.59,0.09-2.38,0.2c-1.17,0.15-1.91,0.84-2.04,2C91.81,278.16,91.89,279.1,91.89,280.16z M160.69,262.71
			c-1.02-0.12-1.87-0.27-2.72-0.31c-4.31-0.17-8.63-0.3-12.94-0.47c-2.79-0.11-3.8,0.71-3.95,3.52c-0.43,7.91-0.81,15.81-1.2,23.72
			c-0.06,1.17-0.01,2.34-0.01,3.77c6.85,0.23,13.43,0.46,20,0.68c0.51-1.97,0.55-3.59-0.31-5.27c-0.7-0.06-1.4-0.16-2.11-0.19
			c-3.19-0.15-6.39-0.26-9.58-0.42c-2.04-0.1-2.27-0.33-2.18-2.25c0.26-5.51,0.54-11.02,0.83-16.53c0.02-0.44,0.23-0.88,0.39-1.45
			c4.61,0.13,9.12,0.26,13.77,0.39C160.69,266.02,160.69,264.46,160.69,262.71z M33.76,289.39c0.76-8.45,0.83-16.75,1.81-25.23
			c2.23,0.15,4.22,0.14,6.18,0.44c1.92,0.3,3.16,1.96,3.28,3.91c0.18,3.04-1.81,5.09-4.98,5.13c-2.68,0.03-2.82,0.16-2.9,2.8
			c-0.02,0.68,0,1.37,0,2.08c3.2,0.5,6,0.22,8.57-1.38c3.57-2.23,5.26-6.5,4.32-10.85c-0.88-4.03-3.58-6.56-8.03-7.04
			c-3.01-0.32-6.06-0.24-9.1-0.26c-2.01-0.02-2.36,0.33-2.49,2.34c-0.55,8.77-1.08,17.55-1.6,26.33c-0.03,0.53,0.04,1.06,0.07,1.73
			C30.51,289.39,31.99,289.39,33.76,289.39z M76.35,260.24c-0.24-0.1-0.38-0.21-0.52-0.22c-5.27-0.16-10.53-0.34-15.8-0.45
			c-1.71-0.04-2.1,0.42-2.23,2.38c-0.49,7.73-0.97,15.46-1.41,23.2c-0.09,1.58-0.01,3.17-0.01,5.1c6.37,0.18,12.7,0.36,19.26,0.54
			c0-1.9,0-3.52,0-5.34c-4.6-0.23-9.1-0.46-13.78-0.7c0.23-6.68,0.55-13.08,1.11-19.53c4.65,0,9,0,13.53,0
			C76.39,263.44,77.2,261.81,76.35,260.24z M420.66,302.1c0.43-0.89,0.75-1.61,1.13-2.3c0.63-1.14,0.58-2.06-0.57-2.89
			c-0.7-0.5-1.52-1.13-1.79-1.88c-0.55-1.56-1.76-2.43-2.89-3.42c-0.95-0.84-2.14-1.47-2.92-2.44c-1.99-2.48-3.92-5.03-5.65-7.7
			c-0.94-1.45-1.49-3.17-2.09-4.81c-0.26-0.72-0.31-1.58-0.23-2.35c0.15-1.48,1.47-2.46,3.06-2.45c1.58,0.01,2.59,0.8,2.81,2.37
			c0.21,1.51,0.21,2.94-0.63,4.39c-1.34,2.32-1.13,2.97,0.81,4.92c2.54-1.56,4.37-3.47,5.27-5.7c0.8-1.99,1.29-4.2-0.23-5.92
			c-1.27-1.43-2.95-2.79-4.72-3.42c-2.39-0.84-5.05-0.77-7.53,0.12c-0.87,0.32-1.86,0.82-2.37,1.53c-2.42,3.34-3.56,7.36-0.92,11.39
			c3.72,5.7,7.91,11.05,12.82,15.78C415.91,299.15,417.9,300.87,420.66,302.1z M133.96,261.88c-5.72-0.7-11.08-0.57-16.42-0.58
			c-1.28,0-2.08,0.86-2.34,2.26c-0.16,0.86-0.17,1.75-0.22,2.62c-0.33,6.06-0.68,12.12-0.94,18.19c-0.11,2.45-0.02,4.91-0.02,7.5
			c1.66,0.09,3.34,0.61,5.14,0.01c0.45-8.36,0.89-16.63,1.34-25.01c4.59,0,8.95,0,13.46,0
			C133.96,265.19,133.96,263.65,133.96,261.88z M194.21,287.59c-0.26-0.24-0.52-0.54-0.82-0.78c-1.72-1.36-2.05-1.99-4.18-0.05
			c-2.93,2.67-6.6,3.16-10.35,2.1c-4.41-1.25-6.87-4.67-6.9-9.52c-0.02-3.11,0.25-6.23,0.36-9.34c0.03-0.82-0.05-1.64-0.08-2.66
			c-5.34,3.62-7.32,11.25-5.74,16.45c1.95,6.38,7.17,10.69,13.81,11.15C186.62,295.37,192.1,292.51,194.21,287.59z M534.04,304.45
			c-0.18-0.68-0.25-1.15-0.42-1.57c-4.08-10.08-8.17-20.15-12.27-30.22c-0.21-0.51-0.45-1.04-0.78-1.48
			c-0.63-0.84-1.67-0.98-2.2-0.14c-1.36,2.13-2.84,4.19-1.58,7.06c2.02,4.61,3.78,9.34,5.65,14.01c1.43,3.56,2.84,7.13,4.29,10.68
			c0.29,0.7,0.42,1.64,1.48,1.65C530.09,304.47,531.98,304.45,534.04,304.45z M246.44,264.95c-1.42,1.02-2.13,1.97-2.14,3.54
			c-0.01,1.66,0.07,3.08,1.34,4.37c1.4,1.41,2.56,3.06,3.85,4.58c5.36,6.34,10.74,12.67,16.08,19.03c0.83,0.99,1.66,1.74,3.26,1.11
			c0.05-1.17,0.13-2.43,0.16-3.69c0.04-1.91-0.68-3.42-1.98-4.91c-5.97-6.87-11.8-13.86-17.69-20.81
			C248.42,267.09,247.44,266.05,246.44,264.95z M453.93,272.01c-0.44-0.06-0.68-0.14-0.9-0.12c-3.2,0.3-4.31,2.73-5.18,5.28
			c-0.88,2.57-0.45,4.98,1.68,6.77c1.58,1.32,3.33,2.47,5.1,3.52c1.64,0.97,3.44,1.69,5.14,2.57c1.59,0.82,2.62,2.08,2.7,3.95
			c0.08,1.83,0.13,3.67,0.21,5.5c0.03,0.74,0.12,1.48,0.23,2.77c1.55-1.05,2.86-1.6,3.71-2.56c4.44-5.04,3.36-9.98-2.4-13.87
			c-2.02-1.37-4.27-2.49-6.55-3.38c-2.83-1.11-3.91-3.04-3.76-5.94C454,275,453.93,273.5,453.93,272.01z M360.46,268.57
			c-4.39,1.26-5.34,4.53-6.3,7.73c-0.63,2.11,0.01,4.03,1.61,5.44c1.54,1.36,3.25,2.55,5,3.63c1.55,0.96,3.27,1.65,4.89,2.51
			c1.58,0.84,2.57,2.1,2.61,3.99c0.03,1.67,0.13,3.34,0.18,5.01c0.03,0.85,0,1.7,0,2.61c4.93-1.41,7.47-6.14,6.06-10.66
			c-0.82-2.62-2.59-4.37-4.83-5.7c-1.85-1.1-3.75-2.14-5.73-2.96c-2.66-1.11-3.77-2.95-3.52-5.81
			C360.58,272.57,360.46,270.75,360.46,268.57z M514.67,294.51c-0.1-0.68-0.19-0.86-0.14-0.98c0.26-0.67,0.54-1.33,0.84-1.98
			c2.41-5.26,2.42-5.27-0.12-10.45c-0.22-0.44-0.62-0.79-1.14-1.44c-3.88,7.92-7.61,15.56-11.02,23.3c1.56,1.4,3.15,0.74,4.6,0.94
			c1.28,0.18,2.17-0.26,2.55-1.57c0.13-0.45,0.43-0.86,0.6-1.3c0.41-1.03,1.14-1.44,2.24-1.38c2.07,0.1,4.15,0.14,6.23,0.19
			c1.01,0.02,2.02,0,3.42,0c-0.63-1.51-1.1-2.67-1.59-3.81c-0.45-1.06-1.19-1.6-2.42-1.53
			C517.39,294.57,516.04,294.51,514.67,294.51z M297.93,298.21c2.14-0.09,4.02,0.58,5.84-0.2c-0.4-3.09-10.76-30.49-12.05-31.97
			c-0.15,0.02-0.36-0.03-0.46,0.05c-2.19,1.82-3.23,5.61-2.27,8.21c1.85,5.02,3.68,10.04,5.54,15.05
			C295.62,292.27,296.75,295.15,297.93,298.21z M316.96,298.58c0.14-0.37,0.24-0.51,0.25-0.66c0.41-9.27,0.83-18.53,1.2-27.8
			c0.04-0.92-0.23-1.86-0.35-2.68c-3.58-1.34-5.73,0.36-5.82,3.95c-0.23,8.55-0.68,17.1-1.02,25.65c-0.02,0.45,0.08,0.91,0.13,1.54
			C313.29,298.58,315.09,298.58,316.96,298.58z M167.95,533.91c1.73-4.66,3.48-9.02,4.93-13.49c0.53-1.63,1.89-2.21,2.92-3.09
			c0.51-0.44,1.96,0.08,2.94,0.35c1.61,0.45,3.18,1.07,4.78,1.58c0.87,0.28,1.74,0.44,2.11-0.73c-1.47-1.38-10.03-4.84-13.05-5.31
			c-0.91,1.58-2,3.05-2.66,4.69c-2.15,5.34-4.17,10.73-6.18,16.12c-0.35,0.93-0.44,1.95-0.63,2.85c6.24,3.02,12.93,5.47,14.73,5.17
			c-1.88-0.8-3.43-1.38-4.91-2.09c-1.49-0.72-3.3-0.88-4.38-2.46c1.03,0.1,1.99,0.38,2.93,0.73c1.72,0.64,3.43,1.3,5.14,1.98
			c0.78,0.31,1.43,0.28,1.79-0.56c0.38-0.88-0.16-1.35-0.89-1.65c-1.7-0.69-3.42-1.34-5.11-2.05
			C170.95,535.31,169.53,534.63,167.95,533.91z M286.12,288.31c0.78-1.74,1.34-2.97,1.89-4.21c1.3-2.92,0.79-5.84-1.45-8.4
			c-1.76,2.31-9.57,19.42-9.87,21.79c1.65,0,3.27,0,4.87,0c0.74-1.21,1.21-2.93,2.28-3.48c1.21-0.62,2.95-0.18,4.46-0.18
			c1.65-0.01,3.3,0,5.33,0c-0.37-1.27-0.67-2.22-0.92-3.18c-0.35-1.33-1.07-1.98-2.56-1.92
			C288.93,288.78,287.69,288.49,286.12,288.31z M327.02,291.05c2.11,0,3.92,0,5.68,0c0.81-3.09,1.37-21.55,0.75-23.38
			c-4.08-1.18-5.52-0.18-5.71,3.96c-0.24,5.34-0.48,10.69-0.71,16.03C326.98,288.68,327.02,289.7,327.02,291.05z M200.28,269.25
			c8.6,0.15,16.9,0.81,25.44,0.63c-0.1-1.92-0.19-3.47-0.27-4.87c-0.48-0.18-0.62-0.28-0.77-0.29c-7.18-0.3-14.35-0.61-21.53-0.87
			c-1.46-0.05-2.7,1.28-2.86,2.88C200.23,267.44,200.28,268.16,200.28,269.25z M263.84,553.74c0.97-0.57,1.56-0.76,1.94-1.16
			c1.37-1.45,2.69-2.94,3.97-4.46c1.81-2.15,2.7-4.5,2.44-7.47c-0.48-5.59-5.63-9.45-10.99-7.9c-1.08,0.31-2.17,0.76-2.48,2.02
			c-0.62,2.56-1.41,5.04-2.72,7.35c-0.1,0.18-0.01,0.46-0.01,0.84c1.17,0,2.33,0,3.64,0c0.15-2.37,1.11-4.35,2.44-6.16
			c0.9-1.21,2.09-1.69,3.57-1.33c1.37,0.33,2.53,0.89,2.7,2.71c-0.83-0.08-1.55-0.14-1.98-0.18c0.27,1.36,0.55,2.64,0.75,3.92
			c0.1,0.62-0.05,1.28,0.05,1.9c0.18,1.16-0.18,1.94-1.18,2.62c-0.76,0.52-1.32,1.34-1.96,2.04c-0.61,0.66-1.21,1.32-1.96,2.13
			c1.04,0.37,1.81,0.64,2.6,0.92C264.41,552.19,264.23,552.67,263.84,553.74z M214.62,295.58c0.34-7.98,0.85-15.51,0.88-22.9
			c-3.36-1.79-5.68,0.04-5.82,3.17c-0.26,5.74-0.53,11.47-0.78,17.21c-0.03,0.69,0.08,1.39,0.14,2.26
			C210.92,295.41,212.63,295.49,214.62,295.58z M402.15,285.63c-2.35,1.75-3.97,3.79-4.99,6.28c-1.68,4.15-0.1,7.74,4.13,9.19
			c3.35,1.15,6.74,1.23,10.1-0.03c0.57-0.21,1.07-0.59,1.86-1.03c-0.86-1.33-1.48-2.62-2.4-3.63c-0.92-1.01-2.11,0.05-3.18,0.07
			c-3.24,0.04-5.29-2.47-4.39-5.51c0.11-0.38,0.29-0.75,0.51-1.08c0.57-0.87,0.42-1.66-0.17-2.43
			C403.17,286.9,402.72,286.35,402.15,285.63z M190.76,273.6c0.94-0.57,1.76-1.03,2.53-1.56c1.94-1.32,2-1.75,0.69-3.62
			c-3.23-4.59-9.39-6.78-14.84-5.43c-2.74,0.68-5.29,3.24-4.06,7.25c2.62-1.5,5.39-2.38,8.43-1.89
			C186.65,268.87,188.78,270.81,190.76,273.6z M270.11,265.99c-0.69-0.13-1.07-0.24-1.45-0.26c-2.99-0.17-4.4,1.13-4.52,4.12
			c-0.13,3.27-0.31,6.55-0.41,9.82c-0.02,0.76-0.05,1.73,0.36,2.27c1.47,1.94,3.13,3.74,4.71,5.59c0.17-0.06,0.35-0.12,0.52-0.18
			C269.65,280.26,270.26,273.17,270.11,265.99z M346.45,294.03c-6.36-0.2-12.37-0.38-18.51-0.58c-0.09,2.01-2.28,3.38-0.83,5.63
			c6.38,0.14,12.84,0.67,19.35,0.44C346.45,297.63,346.45,296.06,346.45,294.03z M197.77,522.61c-2.21,0.36-2.43,0.65-2.83,2.41
			c-0.22,0.97-0.48,2.02-1.04,2.81c-2.32,3.26-2.2,3.59,0.18,6.63c0.63,0.81,1.49,1.44,2.24,2.14c0.87,0.81,1.85,1.54,2.6,2.46
			c0.58,0.71,1.15,1.63,1.22,2.49c0.11,1.57-0.18,3.16-0.26,4.74c-0.04,0.75-0.01,1.51-0.01,2.46c2.78-0.85,4.58-2.48,5.04-5.11
			c0.46-2.69-0.22-5.25-2.15-7.31c-0.98-1.05-1.97-2.12-3.13-2.94c-2.66-1.87-3.33-4.29-2.51-7.32
			C197.41,525.03,197.53,523.95,197.77,522.61z M243.99,277.02c-0.25,6.47-0.51,12.87-0.76,19.34c2.09,0.35,3.86,0.57,5.77,0.09
			c0.2-3.98,0.34-7.87,0.61-11.75c0.18-2.59-0.22-4.88-2.4-6.6c-0.55-0.43-0.97-1.03-1.47-1.57
			C245.15,276.7,244.63,276.85,243.99,277.02z M286.19,537.56c-0.77,1.49-1.42,2.78-2.1,4.07c-2.91,5.48-2.19,11.3,1.64,15.88
			c1.35,1.62,2.69,2.23,4.42,2.33c-0.45-0.99-0.93-2.04-1.39-3.04c1.59,0.4,2.99,0.94,4.42,1.07c2.28,0.2,2.5-0.17,2.07-2.73
			c-0.61,0.15-1.21,0.34-1.82,0.44c-2.46,0.39-4.65-0.95-5.4-3.33c-0.26-0.83-0.4-1.71-0.48-2.59c-0.26-2.7-0.42-5.42-0.7-8.12
			C286.72,540.22,286.42,538.92,286.19,537.56z M346.72,548.46c0.13-1.54,0.82-3.28,0.23-4.25c-0.72-1.2-0.6-2.2-0.53-3.32
			c0.13-2.14,0.4-4.28,0.53-6.43c0.08-1.33,0.02-2.66,0.02-3.99c-3.15,0.08-3.84,0.46-4.04,2.56c-0.45,4.75-0.8,9.52-1.16,14.28
			c-0.05,0.67,0.08,1.36,0.13,2.26C343.53,549.2,344.91,548.88,346.72,548.46z M219.59,554.42c1.57,0.21,2.72,0.36,4.16,0.55
			c1.07-6.65,2.09-13.03,3.12-19.4c-3.16-1.17-4.04-1.17-4.91,0.11c0.91,0.46,1.81,0.91,2.55,1.28c-1.07,1.48-2.73,2.55-2.85,4.71
			c-0.07,1.18-0.43,2.35-0.62,3.53C220.55,548.18,220.1,551.15,219.59,554.42z M355.9,290.76c-0.78,0.48-1.41,0.81-1.98,1.23
			c-1.43,1.04-1.72,2.97-0.5,4.31c3.26,3.56,7.33,4.82,12.43,4.12c-0.1-1.84-0.19-3.52-0.29-5.47
			C361.21,295.75,358.45,293.47,355.9,290.76z M320,557.47c-1.56-1.79-2.07-3.98-2.52-6.15c-0.85-4.13-1.58-8.29-2.37-12.43
			c-0.09-0.49-0.29-0.97-0.57-1.9c-2.67,2.97-3.84,6.12-3.15,9.48C312.39,551.42,314.42,555.89,320,557.47z M297.94,558.54
			c0.66-0.64,1.2-1.07,1.63-1.59c2.6-3.15,4.11-10.65,0.25-15.48c-1.3-1.63-2.79-3.02-5.14-3.17
			C297.96,544.68,296.75,551.64,297.94,558.54z M328.03,555.06c0.18,0.03,0.36,0.05,0.54,0.08c2.97-3.51,3.84-7.55,2.27-11.92
			c-1.3-3.63-3.42-6.67-7.59-7.52c1.71,2.38,2.32,5.09,2.79,7.86C326.69,547.39,327.37,551.23,328.03,555.06z M459.62,302.86
			c0-1.33,0-2.34,0-3.15c-1.23-0.79-2.2-1.77-3.35-2.07c-2.42-0.64-4.68-1.41-6.21-3.44c-2.03,0.49-3,1.9-4.05,3.39
			C449.6,301.84,454.02,303.51,459.62,302.86z M363.26,272.96c3.05-0.38,5.45,1.13,7.27,3.78c1.48-1.15,2.72-2.1,4-3.09
			c-1.11-2.85-3.07-4.57-5.61-5.47c-4.25-1.51-6.32-1.04-5.95,4.37C362.97,272.62,363.06,272.68,363.26,272.96z M456.78,274.72
			c3.51-0.3,5.94,1.15,7.85,3.84c1.49-1.08,2.82-2.04,4.27-3.09c-2.31-3.31-4.93-5.69-8.93-5.99c-1.58-0.12-2.95,0.98-3.16,2.55
			C456.7,272.79,456.78,273.58,456.78,274.72z M106.96,291.26c-1.7-2.75-3.2-5.19-4.71-7.62c-1.14-1.83-1.67-2.02-3.73-1.39
			c-1.8,0.55-2.22,1.55-1.25,3.23c1,1.73,2.09,3.41,3.16,5.09c0.21,0.32,0.49,0.76,0.8,0.83
			C103.01,291.78,104.8,292.14,106.96,291.26z M354.85,551.17c1.05-0.24,1.82-0.38,2.57-0.6c2.19-0.62,2.42-1.03,1.67-3.26
			c-0.68-2.03-1.45-4.03-2.18-6.04c-0.29-0.79-0.57-1.58-0.93-2.56c-1.52,0.5-2.78,0.91-4.34,1.42
			C352.75,543.91,353.78,547.47,354.85,551.17z M235.27,532.17c0.56-1.37,0.11-1.8-1.01-2c-4.79-0.88-9.57-1.82-14.36-2.73
			c-0.39-0.07-0.83-0.17-1.18-0.06c-0.39,0.13-1.02,0.5-1.01,0.73c0.03,0.45,0.36,0.97,0.71,1.3c0.26,0.24,0.74,0.25,1.14,0.32
			c3.84,0.74,7.68,1.52,11.53,2.18C232.41,532.14,233.79,532.09,235.27,532.17z M130.87,280.37c0-1.72,0-3.27,0-5.08
			c-2.1-0.05-4-0.14-5.89-0.09c-0.47,0.01-0.98,0.39-1.38,0.72c-1.44,1.17-1.43,2.66-0.88,4.46
			C125.38,280.37,127.98,280.37,130.87,280.37z M156.58,279.39c-0.08-1.63-0.15-3.03-0.23-4.76c-1.91-0.08-3.63-0.18-5.35-0.2
			c-0.34,0-0.77,0.23-1.02,0.49c-1.18,1.24-2.01,2.6-0.99,4.69c1.98,0,4.03,0.01,6.09-0.01C155.46,279.6,155.84,279.5,156.58,279.39
			z M72.3,271.86c-1.62,0-2.95,0-4.29,0c-2.71,0-3.01,0.28-3.12,2.94c-0.02,0.6,0,1.21,0,2c2.57,0,4.89,0,7.41,0
			C72.3,275.19,72.3,273.73,72.3,271.86z M257.02,555.87c0,0.21,0,0.42-0.01,0.62c0.83,0.32,1.64,0.88,2.48,0.93
			c3.8,0.24,7.61,0.34,11.41,0.49c0.16,0.01,0.36,0.03,0.47-0.05c0.39-0.31,0.85-0.61,1.05-1.02c0.07-0.15-0.5-0.65-0.83-0.93
			c-0.16-0.14-0.45-0.17-0.68-0.18c-4.11-0.19-8.23-0.39-12.34-0.52C258.06,555.21,257.54,555.65,257.02,555.87z M195.53,548.73
			c-1.11-1.05-2.56-1.3-2.76-3.05c1.37,0.55,2.5,0.99,3.82,1.52c0.29-0.92,0.49-1.57,0.77-2.49c-3.57-0.25-5.36-2.64-7.03-5.28
			c-0.45,1.79,0.78,3.84-1.48,4.81C190.82,547.09,192.29,548.11,195.53,548.73z M420.96,293.29c2.12-2.3,2.67-3.33,2.92-5.39
			c-0.89-0.28-1.78-0.6-2.69-0.83c-0.97-0.25-2.68,0.54-3.07,1.34c-0.62,1.27-0.45,2.09,0.72,3.14
			C419.48,292.12,420.17,292.65,420.96,293.29z M298.34,536.34c-1.27-2.52-5.4-4.6-7-3.35c-0.05,0.48-0.1,1.07-0.15,1.59
			C293.67,535.19,296.01,535.77,298.34,536.34z M201.61,522.92c-0.14,1.37-0.09,1.31,0.67,1.83c1.15,0.79,2.21,1.7,3.33,2.53
			c0.38,0.28,0.83,0.46,1.43,0.79C206.47,524.93,204.46,523.13,201.61,522.92z M179.24,526.51c-1.32-0.49-2.7-1.04-4.11-1.48
			c-0.26-0.08-0.82,0.19-0.93,0.44c-0.12,0.27,0.03,0.9,0.25,1.02c1.12,0.58,2.26,1.15,3.47,1.51
			C178.74,528.24,179.23,527.68,179.24,526.51z M204.5,530.77c0.55-0.28,1.1-0.56,1.74-0.88c-1.66-1.76-1.91-1.9-3.56-2.14
			C203.24,528.69,203.81,529.63,204.5,530.77z M320.38,552.88c0.33,1,0.86,1.48,2.32,0.77C321.63,553.3,321,553.09,320.38,552.88z"
			/>
		<path d="M484.63,697.85c2.56,0.26,5.12,0.49,7.67,0.79c0.74,0.09,1.45,0.39,2.17,0.6l0.01,0c-2.56-0.27-5.12-0.51-7.67-0.82
			C486.08,698.33,485.37,698.05,484.63,697.85C484.64,697.85,484.63,697.85,484.63,697.85z"/>
		<path d="M566.92,705.73c2.48,0.21,4.97,0.42,7.45,0.63c-0.01,0.1-0.02,0.2-0.02,0.3c-2.48-0.21-4.97-0.41-7.45-0.62
			C566.9,705.94,566.91,705.83,566.92,705.73z"/>
		<path d="M-15.65,651.31c1.54,0.13,3.07,0.26,4.61,0.39c-0.01,0.08-0.01,0.16-0.02,0.25c-1.54-0.12-3.07-0.24-4.61-0.36
			C-15.67,651.49-15.66,651.4-15.65,651.31z"/>
		<path d="M17.3,654.15c1.26,0.15,2.51,0.3,3.56,0.43C18.89,654.89,18.89,654.89,17.3,654.15L17.3,654.15z"/>
		<path d="M42.17,656.59c-1,0-2,0-3,0c0-0.05,0-0.09,0-0.14c1,0,2,0,3,0C42.17,656.5,42.17,656.55,42.17,656.59z"/>
		<path d="M52.9,657.55c-1.06,0-2.13,0-3.19,0c0-0.04,0.01-0.07,0.01-0.11c1.06,0,2.13,0,3.19,0
			C52.9,657.47,52.9,657.51,52.9,657.55z"/>
		<path d="M560.23,705.48c-0.78-0.1-1.57-0.17-2.34-0.32c-0.75-0.15-1.49-0.4-2.23-0.6l-0.01,0c0.78,0.11,1.56,0.19,2.34,0.34
			C558.74,705.05,559.48,705.28,560.23,705.48L560.23,705.48z"/>
		<path d="M577,706.81c1.01,0,2.02,0,3.04,0c0,0.05,0,0.1,0,0.16c-1.01,0-2.02,0-3.04,0C577,706.92,577,706.86,577,706.81z"/>
		<path d="M586.72,707.49c-0.98,0-1.97,0-2.95,0c0-0.04,0-0.09,0-0.13c0.98,0,1.96,0,2.95,0
			C586.72,707.4,586.72,707.45,586.72,707.49z"/>
		<path d="M-4.51,652.66c-1.23-0.15-2.46-0.31-3.48-0.43C-5.9,651.96-5.9,651.96-4.51,652.66C-4.52,652.66-4.51,652.66-4.51,652.66z
			"/>
		<path d="M520.93,701.61c0.88,0,1.77,0,2.65,0c0,0.04,0,0.09,0,0.13c-0.88,0-1.77,0-2.65,0
			C520.93,701.7,520.93,701.65,520.93,701.61z"/>
		<path d="M509.37,700.7c-1.08-0.16-2.17-0.32-3.25-0.47c0.02-0.09,0.05-0.18,0.07-0.27C507.25,700.2,508.3,700.45,509.37,700.7
			L509.37,700.7z"/>
		<path d="M68.71,659c-0.91,0-1.82,0-2.72,0c0-0.04,0-0.09-0.01-0.13c0.91,0,1.82,0,2.73,0C68.71,658.91,68.71,658.96,68.71,659z"/>
		<path d="M560.22,705.48c1.38-0.06,2.76-0.13,4.14-0.19c0,0.14,0,0.28,0,0.43C562.98,705.63,561.61,705.56,560.22,705.48
			C560.23,705.48,560.22,705.48,560.22,705.48z"/>
		<path d="M555.66,704.55c-1.34,0-2.68,0-4.02,0C552.97,704.55,554.31,704.55,555.66,704.55
			C555.65,704.55,555.66,704.55,555.66,704.55z"/>
		<path d="M518.33,701.27c-0.9,0-1.81,0-2.71,0c0-0.06,0-0.11,0-0.17c0.9,0,1.81,0,2.71,0
			C518.33,701.16,518.33,701.21,518.33,701.27z"/>
		<path d="M395.06,674.91c0.31,0.35,0.56,0.6,0.74,0.89c0.02,0.03-0.38,0.44-0.43,0.41c-0.29-0.17-0.55-0.4-0.76-0.66
			C394.57,675.5,394.83,675.22,395.06,674.91z"/>
		<path d="M10.22,653.73c-0.91,0-1.83,0-2.74,0c0-0.05,0-0.1,0-0.15c0.91,0,1.83,0,2.74,0C10.22,653.63,10.22,653.68,10.22,653.73z"
			/>
		<path d="M17.3,654.15c-1.35,0-2.69,0-4.04,0C14.61,654.15,15.95,654.15,17.3,654.15C17.3,654.15,17.3,654.15,17.3,654.15z"/>
		<path d="M444.3,694.17c-0.89-0.04-1.79-0.09-2.68-0.13c0-0.05,0-0.09,0.01-0.14c0.93,0,1.86,0,2.78,0
			C444.37,693.99,444.34,694.08,444.3,694.17z"/>
		<path d="M529.52,702.61c-1.13-0.17-2.27-0.33-3.4-0.5c0.02-0.1,0.04-0.21,0.06-0.31C527.29,702.07,528.4,702.34,529.52,702.61
			L529.52,702.61z"/>
		<path d="M23.76,654.99c0.87,0,1.73,0,2.6,0c0,0.05,0,0.1,0.01,0.15c-0.83,0-1.66,0-2.49,0C23.84,655.1,23.8,655.05,23.76,654.99z"
			/>
		<path d="M55.45,657.91c0.9,0,1.79,0,2.69,0c0,0.04,0,0.09,0,0.13c-0.9,0-1.79,0-2.69,0C55.46,657.99,55.45,657.95,55.45,657.91z"
			/>
		<path d="M464.73,696.36c-1.09-0.16-2.17-0.32-3.26-0.48c0.03-0.1,0.05-0.19,0.08-0.29C462.61,695.85,463.67,696.11,464.73,696.36
			L464.73,696.36z"/>
		<path d="M464.73,696.36c1.62-0.07,3.29-0.63,4.8,0.47l0.01,0C467.93,696.68,466.34,696.52,464.73,696.36
			C464.73,696.36,464.73,696.36,464.73,696.36z"/>
		<path d="M469.53,696.83c1.4,0,2.8,0,4.2,0c0,0.07,0,0.14-0.01,0.21C472.33,696.97,470.93,696.9,469.53,696.83
			C469.53,696.83,469.53,696.83,469.53,696.83z"/>
		<path d="M447.08,694.4c0.69,0,1.38,0,2.07,0c0,0.04,0,0.08,0,0.12c-0.69,0-1.38,0-2.07,0
			C447.08,694.49,447.08,694.45,447.08,694.4z"/>
		<path d="M484.64,697.85c-1.23,0-2.47,0-3.7,0c0-0.08,0.01-0.16,0.01-0.24C482.18,697.69,483.4,697.77,484.64,697.85
			C484.63,697.85,484.64,697.85,484.64,697.85z"/>
		<path d="M494.48,699.24c1.24,0,2.49,0,3.73,0C496.97,699.24,495.73,699.24,494.48,699.24
			C494.49,699.24,494.48,699.24,494.48,699.24z"/>
		<path d="M509.36,700.7c1.24-0.07,2.47-0.14,3.71-0.21c0,0.13,0,0.25,0,0.38c-1.23-0.06-2.46-0.11-3.7-0.17
			C509.37,700.7,509.36,700.7,509.36,700.7z"/>
		<path d="M500.79,699.62c0.69,0,1.37,0,2.06,0c0,0.05,0,0.1,0.01,0.15c-0.72,0-1.44,0-2.16,0
			C500.72,699.72,500.76,699.67,500.79,699.62z"/>
		<path d="M529.51,702.61c1.23-0.07,2.46-0.13,3.68-0.2c0,0.07,0,0.13,0.01,0.2C531.97,702.61,530.75,702.61,529.51,702.61
			C529.52,702.61,529.51,702.61,529.51,702.61z"/>
		<path d="M538.41,703.14c-0.76,0-1.51,0-2.27,0c0-0.04,0-0.07,0-0.11c0.76,0,1.51,0,2.27,0
			C538.41,703.07,538.41,703.1,538.41,703.14z"/>
		<path d="M548.51,704.12c-0.75,0-1.49,0-2.24,0c0-0.06,0-0.11,0-0.17c0.74,0,1.47,0,2.21,0
			C548.49,704.01,548.5,704.07,548.51,704.12z"/>
		<path d="M122.9,663.8c-0.73,0-1.47,0-2.2,0c0-0.03,0-0.06,0-0.09c0.73,0,1.47,0,2.2,0C122.9,663.74,122.9,663.77,122.9,663.8z"/>
		<path d="M114.6,663.19c0.69,0,1.38,0,2.08,0c0,0.03,0,0.07,0,0.1c-0.69,0-1.38,0-2.08,0C114.6,663.26,114.6,663.22,114.6,663.19z"
			/>
		<path d="M476.22,697.26c0.81,0,1.61,0,2.42,0c0,0.06,0,0.11,0,0.17c-0.81,0-1.61,0-2.42,0
			C476.22,697.37,476.22,697.32,476.22,697.26z"/>
		<path d="M106.02,662.35c-0.74,0-1.47,0-2.21,0c0-0.04,0-0.07,0-0.11c0.74,0,1.47,0,2.21,0
			C106.02,662.28,106.02,662.31,106.02,662.35z"/>
		<path d="M90.23,660.92c-0.75,0-1.5,0-2.25,0c0-0.04,0-0.08,0-0.11c0.75,0,1.5,0,2.25,0C90.24,660.85,90.23,660.88,90.23,660.92z"
			/>
		<path d="M82.51,660.19c0.63,0.04,1.32,0.09,2,0.13c0,0.05,0,0.1,0,0.15c-0.6,0-1.21,0.01-1.81-0.01c-0.14,0-0.27-0.09-0.41-0.14
			C82.35,660.29,82.4,660.26,82.51,660.19z"/>
		<path d="M79.18,659.96c-0.71,0-1.41,0-2.12,0c0-0.04,0-0.07,0-0.11c0.67,0,1.35,0,2.02,0C79.12,659.89,79.15,659.92,79.18,659.96z
			"/>
		<path d="M74.04,659.48c-0.77,0-1.54,0-2.32,0c0-0.04,0-0.08,0-0.12c0.77,0,1.54,0,2.32,0C74.04,659.41,74.04,659.44,74.04,659.48z
			"/>
		<path d="M63.21,658.64c-0.68-0.03-1.39-0.06-2.09-0.1c0-0.06,0-0.13,0-0.19c0.62,0,1.24-0.01,1.86,0.01c0.14,0,0.28,0.1,0.42,0.15
			C63.35,658.54,63.3,658.58,63.21,658.64z"/>
		<path d="M44.93,656.96c0.73,0,1.45,0,2.18,0c0,0.04,0,0.07,0,0.11c-0.73,0-1.45,0-2.18,0C44.93,657.03,44.93,657,44.93,656.96z"/>
		<path d="M33.81,655.96c0.76,0,1.52,0,2.29,0c0,0.04,0,0.09,0,0.13c-0.76,0-1.52,0-2.29,0C33.81,656.05,33.81,656.01,33.81,655.96z
			"/>
		<path d="M2.13,653.06c0.77,0,1.55,0,2.32,0c0,0.05,0,0.11,0,0.17c-0.78,0-1.56,0-2.34,0C2.12,653.17,2.12,653.12,2.13,653.06z"/>
		<path d="M-4.52,652.66c1.18,0,2.37,0,3.55,0C-2.15,652.66-3.33,652.66-4.52,652.66C-4.51,652.66-4.52,652.66-4.52,652.66z"/>
		<path d="M417.78,691.56c0.54,0,1.07,0,1.61,0c0,0.01,0,0.03,0,0.04c-0.54,0-1.07,0-1.61,0
			C417.78,691.58,417.78,691.57,417.78,691.56z"/>
		<path d="M429.06,692.63c-0.61,0-1.21,0-1.82,0c0-0.04,0-0.09,0-0.13c0.61,0,1.21,0,1.82,0
			C429.06,692.54,429.06,692.58,429.06,692.63z"/>
		<path d="M541.43,703.48c0.61,0,1.21,0,1.82,0c0,0.05,0,0.09,0,0.14c-0.61,0-1.21,0-1.82,0
			C541.43,703.57,541.43,703.53,541.43,703.48z"/>
		<path d="M152.47,666.57c0.55,0,1.1,0,1.66,0c0,0.03,0,0.06,0,0.09c-0.55,0-1.1,0-1.64,0C152.48,666.63,152.47,666.6,152.47,666.57
			z"/>
		<path d="M169.85,668.08c-0.53,0-1.06,0-1.58,0c0-0.02,0-0.03,0-0.05c0.53,0,1.06,0,1.58,0
			C169.85,668.05,169.85,668.07,169.85,668.08z"/>
		<path d="M141.85,665.63c0.52,0,1.04,0,1.56,0c0,0.01,0,0.03,0,0.04c-0.52,0-1.04,0-1.56,0
			C141.85,665.66,141.85,665.64,141.85,665.63z"/>
		<path d="M138.21,665.25c-0.53,0-1.06,0-1.59,0c0-0.03,0-0.06,0-0.09c0.52,0,1.03,0,1.55,0
			C138.18,665.19,138.2,665.22,138.21,665.25z"/>
		<path d="M352.95,685.28c0.53,0,1.07,0,1.6,0c0,0.03,0,0.06,0,0.09c-0.54,0-1.08,0-1.62,0
			C352.94,685.34,352.95,685.31,352.95,685.28z"/>
		<path d="M457.96,695.47c-0.64,0-1.27,0-1.91,0c0-0.05,0-0.1,0-0.15c0.64,0,1.27,0,1.91,0
			C457.96,695.37,457.96,695.42,457.96,695.47z"/>
		<path d="M367.85,686.72c0.54,0,1.08,0,1.62,0c0,0.02,0,0.04,0,0.06c-0.54,0-1.08,0-1.62,0
			C367.85,686.76,367.85,686.74,367.85,686.72z"/>
		<path d="M374.14,687.33c-0.49,0-0.96,0-1.43,0c0-0.05,0-0.1,0-0.14c0.44,0,0.87,0,1.31,0c0.07,0,0.14,0.05,0.21,0.08
			C374.19,687.29,374.15,687.32,374.14,687.33z"/>
		<path d="M109.58,662.73c0.55,0,1.11,0,1.66,0c0,0.03,0,0.06,0,0.08c-0.55,0-1.11,0-1.66,0
			C109.58,662.78,109.58,662.75,109.58,662.73z"/>
		<path d="M29.35,655.51c0.66,0,1.32,0,1.98,0c0,0.05,0,0.09,0,0.14c-0.66,0-1.32,0-1.98,0C29.35,655.6,29.35,655.56,29.35,655.51z"
			/>
		<path d="M392.2,689.1c0.59,0,1.19,0,1.78,0c0,0.03,0,0.06,0,0.09c-0.59,0-1.19,0-1.78,0C392.2,689.16,392.2,689.13,392.2,689.1z"
			/>
		<path d="M453.48,695.01c-0.6,0-1.2,0-1.81,0c0-0.04,0-0.08,0-0.13c0.6,0,1.2,0,1.81,0C453.48,694.92,453.48,694.97,453.48,695.01z
			"/>
		<path d="M438.63,693.57c-0.51,0-1.02,0-1.53,0c0-0.03,0-0.07,0-0.1c0.51,0,1.02,0,1.53,0
			C438.63,693.5,438.63,693.54,438.63,693.57z"/>
		<path d="M407.53,690.56c0.62,0,1.24,0,1.87,0c0,0.03,0,0.07,0,0.1c-0.62,0-1.24,0-1.87,0
			C407.53,690.62,407.53,690.59,407.53,690.56z"/>
		<path d="M399.16,689.71c-0.53,0-1.07,0-1.6,0c0-0.02,0-0.04,0-0.06c0.53,0,1.07,0,1.6,0
			C399.16,689.67,399.16,689.69,399.16,689.71z"/>
		<path d="M432.06,692.94c0.6,0,1.2,0,1.8,0c0,0.05,0,0.1,0,0.15c-0.57,0-1.14,0-1.71,0C432.12,693.04,432.09,692.99,432.06,692.94z
			"/>
		<path d="M100.52,661.88c-0.64,0-1.29,0-1.93,0c0-0.04,0-0.08,0-0.13c0.64,0,1.29,0,1.93,0
			C100.52,661.79,100.52,661.84,100.52,661.88z"/>
		<path d="M504.44,683.94c-0.64,0.21-0.85,0.34-1.04,0.32c-0.16-0.02-0.32-0.21-0.44-0.36c-0.02-0.02,0.15-0.29,0.25-0.3
			C503.4,683.59,503.58,683.69,504.44,683.94z"/>
		<path d="M384.43,688.24c-0.44,0-0.88,0-1.32,0c0-0.02,0-0.03,0-0.05c0.44,0,0.88,0,1.32,0
			C384.43,688.21,384.43,688.23,384.43,688.24z"/>
		<path d="M387.96,688.62c0.39,0.03,0.78,0.05,1.17,0.08c-0.39,0.03-0.78,0.06-1.17,0.08C387.96,688.73,387.96,688.67,387.96,688.62
			z"/>
		<path d="M404.53,690.21c-0.39,0-0.77,0-1.16,0c0-0.03,0-0.06,0-0.08c0.38,0,0.76,0,1.14,0
			C404.51,690.16,404.52,690.18,404.53,690.21z"/>
		<path d="M422.43,691.97c0.45,0,0.9,0,1.35,0c0,0.04,0,0.08,0,0.11c-0.44,0-0.89,0-1.33,0
			C422.45,692.05,422.44,692.01,422.43,691.97z"/>
		<path d="M364.32,686.32c-0.46,0-0.91,0-1.37,0c0-0.02,0-0.05,0-0.07c0.46,0,0.91,0,1.37,0
			C364.32,686.27,364.32,686.3,364.32,686.32z"/>
		<path d="M93.31,661.3c0.43,0,0.85,0,1.28,0c0,0.02,0,0.03,0,0.05c-0.43,0-0.85,0-1.28,0C93.31,661.34,93.31,661.32,93.31,661.3z"
			/>
		<path d="M132.52,664.71c-0.44,0-0.88,0-1.32,0c0-0.02,0-0.04,0-0.06c0.44,0,0.88,0,1.32,0
			C132.52,664.67,132.52,664.69,132.52,664.71z"/>
		<path d="M412.81,690.99c0.45,0.04,0.9,0.08,1.36,0.12c-0.42,0.04-0.85,0.08-1.27,0.11C412.86,691.14,412.84,691.06,412.81,690.99z
			"/>
		<path d="M125.92,664.1c0.43,0.04,0.86,0.08,1.29,0.12c-0.4,0.03-0.81,0.07-1.21,0.1C125.97,664.24,125.94,664.17,125.92,664.1z"/>
		<path d="M319.12,681.99c-0.26,0-0.53,0-0.79,0c0-0.01,0-0.01,0-0.02c0.26,0,0.53,0,0.79,0
			C319.12,681.98,319.12,681.98,319.12,681.99z"/>
		<path d="M324.03,682.54c-0.3-0.02-0.6-0.04-0.89-0.06c0.02-0.03,0.04-0.09,0.06-0.1c0.28-0.01,0.56,0,0.83,0
			C324.03,682.43,324.03,682.49,324.03,682.54z"/>
		<path d="M328.36,682.88c0.28,0.03,0.57,0.07,0.85,0.1c-0.28,0-0.57,0-0.85,0C328.36,682.94,328.36,682.91,328.36,682.88z"/>
		<path d="M337.95,683.87c0.35,0,0.69,0,1.04,0c0,0.05,0,0.09-0.01,0.14c-0.35-0.02-0.69-0.04-1.04-0.07
			C337.94,683.92,337.94,683.9,337.95,683.87z"/>
		<path d="M344.19,684.42c-0.34,0-0.67,0-1.01,0c0-0.02,0-0.03,0-0.05c0.34,0,0.67,0,1.01,0C344.2,684.39,344.2,684.4,344.19,684.42
			z"/>
		<path d="M358.72,685.79c0.28,0,0.57,0,0.85,0c0,0.02,0,0.04,0,0.06c-0.28,0-0.57,0-0.85,0
			C358.72,685.82,358.72,685.8,358.72,685.79z"/>
		<path d="M147.92,666.16c-0.31,0-0.62,0-0.93,0c0-0.02,0-0.05,0-0.07c0.29,0,0.58,0,0.88,0
			C147.88,666.12,147.9,666.14,147.92,666.16z"/>
		<path d="M307.77,681.01c0.3,0,0.6,0,0.9,0c0,0.01,0,0.01,0,0.02c-0.3,0-0.6,0-0.9,0C307.77,681.02,307.77,681.01,307.77,681.01z"
			/>
		<path d="M158.88,667.1c-0.28,0-0.57,0-0.85,0c0,0,0-0.01,0-0.01C158.31,667.09,158.6,667.09,158.88,667.1
			C158.88,667.09,158.88,667.09,158.88,667.1z"/>
		<path d="M210.73,671.96c-0.22-0.01-0.44-0.03-0.66-0.04c0.22-0.03,0.45-0.06,0.67-0.1C210.74,671.87,210.74,671.91,210.73,671.96z
			"/>
		<path d="M200.62,670.93c-0.28,0-0.55,0-0.83,0c0,0,0,0,0,0C200.07,670.93,200.35,670.93,200.62,670.93
			C200.62,670.93,200.62,670.93,200.62,670.93z"/>
		<path class="st0" d="M235.24,717.29c0.75,4.27,0.57,8.5,0.29,12.81c-1.19-0.15-1.18-0.87-1.14-1.45
			C234.64,724.86,234.95,721.08,235.24,717.29z"/>
		<path class="st0" d="M145.16,748.78c-0.32-1.07-0.73-2.13-0.93-3.22c-0.12-0.69,0.34-1.31,1.12-1.08
			c0.37,0.11,0.84,0.74,0.84,1.13c-0.01,1-0.25,2-0.4,3C145.58,748.67,145.37,748.73,145.16,748.78z"/>
		<path class="st0" d="M191.76,722.75c0,0.81,0,1.61,0,2.42C190.92,724.45,191.17,723.62,191.76,722.75z"/>
		<path class="st0" d="M120.35,744.88c-0.27-0.29-0.56-0.46-0.54-0.6c0.03-0.26,0.23-0.5,0.37-0.75c0.21,0.16,0.59,0.31,0.6,0.49
			C120.81,744.25,120.55,744.51,120.35,744.88z"/>
		<path class="st0" d="M199.32,727.14c0.06,0.41,0.16,0.79,0.15,1.17c-0.01,0.27-0.16,0.53-0.57,0.76c0-0.59-0.01-1.17,0.01-1.76
			C198.92,727.27,199.12,727.22,199.32,727.14z"/>
		<path class="st0" d="M122.11,720.06c0-0.44,0-0.88,0-1.32c0.04,0,0.09,0,0.13,0c0,0.44,0,0.88,0,1.32
			C122.2,720.06,122.15,720.06,122.11,720.06z"/>
		<path class="st0" d="M196.48,727.21c0-0.46,0-0.92,0-1.38c0.09,0,0.18,0,0.27,0c0,0.45,0,0.9-0.01,1.35
			c0,0.06-0.08,0.12-0.13,0.18C196.57,727.31,196.52,727.27,196.48,727.21z"/>
		<path class="st0" d="M68.04,724.52c-0.63-0.95-1.37-1.57-1.43-2.24c-0.16-2-0.06-4.02-0.06-6.13c1.17,0,2.17,0,3.27,0
			c-0.89-1.36-2.94-1.15-3.45-2.94c1.12,0,2.11,0,3.61,0c-1.07-0.73-1.82-1.13-2.42-1.7c-0.28-0.26-0.41-0.84-0.35-1.24
			c0.03-0.21,0.63-0.5,0.95-0.48c3.26,0.26,6.51,0.58,9.77,0.9c0.21,0.02,0.39,0.24,0.64,0.39c0.03,1.26-0.7,1.62-1.79,1.69
			c-1.14,0.07-2.27,0.21-3.4,0.32c0,0.16,0,0.31,0,0.47c1.36,0.2,2.72,0.4,4.21,0.61c-0.26,1.78-1.54,1.65-2.55,1.76
			c-1.04,0.11-2.1,0.02-3.22,0.26c1.27,0.51,2.32,0.98,2.65,2.46c0.09,0.42,1.14,0.84,1.78,0.9c3.52,0.34,7.09,0.95,10.3-1.38
			c-0.13,1.91-0.37,3.61-0.35,5.31c0.06,4.38,0.01,8.77,0.41,13.13c0.35,3.85,0.1,7.65-0.1,11.48c-0.11,2.02-0.98,3.54-2.69,4.51
			c-3.77,2.14-7.68,3.02-11.9,1.25c-1.5-0.63-2.29-1.61-2.46-3.2c-0.2-1.9-0.39-3.81-0.78-5.68c-0.14-0.67-0.72-1.41-1.31-1.79
			c-2.48-1.6-3.07-2.88-2.37-6.01c1.66,0.15,3.37,0.31,5.11,0.47c0.72-1.14,0.88-2.06-0.29-2.96c-1.18-0.91-1.53-2.2-1.26-3.65
			c0.2-1.05-0.11-1.83-0.99-2.49c-2.03-1.5-2.03-1.73-0.19-3.58C67.53,724.81,67.75,724.71,68.04,724.52z"/>
		<path class="st0" d="M44.75,715.39c1.46,1.93,2.66,2.37,4.72,1.34c1.37-0.68,3.25-0.42,4.14-2.12c0.08-0.14,0.86,0.19,1.24,0.06
			c0.26-0.09,0.38-0.6,0.55-0.91c1.14,0.41,1.26,1.25,1.29,2.18c0.06,1.76,0.21,3.51,0.2,5.26c0,0.67-0.14,1.48-0.53,1.97
			c-1.1,1.36-1.14,2.89-0.81,4.61c0.39-0.86,0.78-1.73,1.37-3.03c0.15,0.85,0.28,1.28,0.29,1.7c0.03,5.91-0.07,11.82,0.09,17.73
			c0.09,3.49-1.68,5.61-4.55,6.89c-2.95,1.32-6.09,1.9-9.35,1.25c-3.15-0.63-4.08-1.79-3.87-4.93c0.28-4.22,0.41-8.47,0.9-12.67
			c0.65-5.55,1.57-11.06,2.39-16.59C42.98,717.01,43.5,716.05,44.75,715.39z"/>
		<path class="st0" d="M19.59,714.06c0.61,0.28,1.07,0.69,1.44,0.62c1.57-0.3,2.91,0.04,4.26,0.88c0.51,0.32,1.41,0.19,2.08,0.03
			c1.46-0.34,2.89-0.82,4.41-1.27c0.09,0.16,0.29,0.35,0.29,0.53c-0.07,4.7-0.22,9.41-0.2,14.11c0,1.32,0.28,2.71,0.76,3.94
			c0.68,1.75,0.33,3.48,0.26,5.2c-0.06,1.57-0.52,3.13-0.59,4.71c-0.07,1.43-0.68,2.45-1.79,3.2c-3.56,2.39-7.48,3.14-11.65,2.18
			c-2.73-0.63-3.46-1.8-3.22-4.71c0.71-8.59,1.53-17.17,3.11-25.65C18.99,716.58,18.8,715.17,19.59,714.06z"/>
		<path class="st0" d="M11.16,700.11c-0.41-1.09,0.01-1.52,1.06-1.76C12.5,699.39,12.15,699.86,11.16,700.11z"/>
		<path class="st0" d="M83.31,715.73c-0.29,0.21-0.43,0.36-0.6,0.42c-0.11,0.03-0.26-0.09-0.39-0.14c0.08-0.16,0.13-0.43,0.24-0.46
			C82.73,715.5,82.94,715.63,83.31,715.73z"/>
		<path class="st0" d="M-7.87,730.74c0-0.45,0-0.89,0-1.34c0.1,0,0.19,0,0.29,0.01c-0.03,0.45-0.05,0.9-0.08,1.34
			C-7.73,730.74-7.8,730.74-7.87,730.74z"/>
		<path class="st0" d="M77.29,699.69c-0.34-0.15-0.68-0.3-1.02-0.45c0.06-0.13,0.11-0.25,0.17-0.38c0.34,0.16,0.68,0.31,1.02,0.47
			C77.4,699.45,77.35,699.57,77.29,699.69z"/>
		<path class="st0" d="M414.77,745.62c0,2.5-1.83,3.12-3.76,4.03c-0.41-1.13-0.63-2.19-1.15-3.08c-0.51-0.86-2.16-0.78-2.03-2.64
			C410.21,744.32,412.55,744.5,414.77,745.62z"/>
		<path class="st0" d="M364.21,742.32c-0.4-0.43-0.68-0.73-0.96-1.03c0.31-0.26,0.66-0.76,0.92-0.72c0.32,0.05,0.67,0.52,0.81,0.88
			C365.04,741.59,364.57,741.94,364.21,742.32z"/>
		<path class="st0" d="M335.82,237.16c0.42-0.8,0.73-1.7,1.29-2.39c14.23-17.47,21.27-37.79,23.19-59.94
			c1.62-18.66-2.59-36.23-11.58-52.65c-8.29-15.15-19.77-27.43-33.78-37.42c-1.23-0.87-2.44-1.77-3.57-2.6
			c0.13-1.55,1.27-1.76,2.19-2.16c6.39-2.77,12.99-4.97,19.71-6.75c12.28-3.25,24.74-4.97,37.47-4.42
			c10.26,0.44,20.33,2.05,30.31,4.46c7.15,1.72,13.7,4.75,20.03,8.4c6.81,3.92,13.12,8.56,19.38,13.26
			c11.44,8.57,14.86,20.12,11.87,33.8c-1.1,5.03-3.18,9.69-5.92,14.08c-4.27,6.82-10.4,10.35-18.39,10.92
			c-7.74,0.56-15.32-0.19-22.8-2.17c-2.94-0.78-5.87-1.56-8.83-2.25c-4.38-1.03-7.53,0.57-9.09,4.53c-1.7,4.33-0.63,8.42,3.32,10.3
			c3.8,1.81,7.85,3.19,11.91,4.35c11.48,3.27,23.04,3.43,34.52-0.04c7.71-2.33,14.99-5.57,20.82-11.4
			c7.11-7.1,11.23-15.64,12.24-25.65c0.13-1.27,0.18-2.56,0.43-3.81c0.36-1.8,1.57-2.18,2.91-1c0.42,0.37,0.78,0.8,1.15,1.22
			c14.29,16.68,26.13,34.94,35.27,54.92c7.95,17.39,13.63,35.51,16.99,54.34c0.03,0.16,0.05,0.32,0.08,0.47
			c0.51,3,0.51,3.02-2.47,2.96c-14.87-0.29-29.73-0.66-44.6-0.88c-27.5-0.42-55-0.75-82.5-1.12c-19.1-0.25-38.21-0.5-57.31-0.75
			c-1.27-0.02-2.54,0-3.81,0C336.1,237.56,335.96,237.36,335.82,237.16z"/>
		<path class="st0" d="M67.98,412.54c-2.56-4.44-5.08-8.6-7.41-12.86c-10.34-18.92-17.87-38.92-22.52-59.98
			c-1.43-6.48-2.43-13.05-3.61-19.58c-0.13-0.71-0.19-1.43-0.22-2.15c-0.11-2.06,0.59-2.83,2.61-2.76
			c4.87,0.16,9.75,0.38,14.62,0.55c7.27,0.26,14.54,0.5,21.81,0.78c15.26,0.59,30.51,1.21,45.77,1.8c4.79,0.19,9.59,0.32,14.38,0.48
			c11.1,0.38,22.21,0.76,33.31,1.16c12.94,0.47,25.88,0.97,38.82,1.47c1.44,0.06,2.87,0.2,4.31,0.28c2.32,0.14,2.47,0.23,3.11,2.5
			c1.4,5,2.82,10,4.14,15.03c4.18,15.84,8.39,31.67,12.43,47.54c1.89,7.43,3.76,14.89,4.43,22.57c1.54,17.63-2.8,33.58-14.4,47.07
			c-11.97,13.92-26.82,23.61-44.79,28.05c-3.69,0.91-7.57,1.12-11.39,1.46c-1.11,0.1-2.4-0.27-3.41-0.79
			c-7.23-3.78-14.29-7.86-20.96-12.58c-1.67-1.18-2.2-1.15-3.78,0.2c-1.81,1.56-3.62,3.12-5.51,4.76c-0.83-0.43-1.57-0.71-2.21-1.15
			c-4.26-2.96-8.56-5.88-12.73-8.97c-3.44-2.55-5.86-6.1-8.46-9.43c-5.33-6.83-10.05-14.05-13.35-22.11
			c-2.38-5.81-4.1-11.83-3.89-18.17c0.32-9.79,3.03-18.91,8.61-27.05c1.57-2.3,3.19-4.6,5.05-6.65c4.06-4.48,9.24-7.37,14.85-9.41
			c11.29-4.12,22.97-5.38,34.92-4.42c1.43,0.12,2.87,0.21,4.3,0.35c6.9,0.69,12.43,4.42,17.83,8.28
			c9.99,7.15,16.39,16.7,18.49,28.92c0.87,5.06,1.57,10.15-0.16,15.19c-2.87,8.38-8.19,14.74-15.97,18.98
			c-5.11,2.78-10.66,2.53-16.17,1.93c-3.96-0.44-7.88-1.31-11.83-1.88c-1.57-0.23-3.2-0.37-4.76-0.2c-2.93,0.3-5.11,1.8-5.98,4.76
			c-0.83,2.81-0.17,5.36,2.21,7.04c2.06,1.46,4.33,2.81,6.71,3.59c14.78,4.83,28.94,3.36,42.51-4.37c4.87-2.77,8.9-6.48,12.77-10.39
			c1.23-1.24,2.03-3.01,3.07-4.41c2.8-3.75,3.7-8.11,4.75-12.43c1.59-6.56,1.21-13.21,0.24-19.8c-1.45-9.81-5.32-18.77-10.62-27.06
			c-5.68-8.88-13.89-14.93-23.35-19.31c-12.35-5.72-25.35-7.41-38.84-6.15c-8.57,0.8-16.86,2.78-24.94,5.65
			c-14.63,5.2-25.3,14.94-32.56,28.56c-3.14,5.89-5.54,12.07-6.84,18.62C72.77,409.12,70.87,410.91,67.98,412.54z"/>
		<path class="st0" d="M161.96,233.46c-41-0.9-81.78-1.8-122.97-2.7c9.17-39.01,28.48-72.06,54.43-101.54
			c0.19,0.05,0.38,0.1,0.58,0.14c0,1.13,0.07,2.27-0.01,3.4c-0.32,4.26-0.04,8.48,0.77,12.65c1.78,9.19,6.58,16.58,13.83,22.35
			c9.48,7.55,20.41,10.86,32.44,9.98c10.88-0.79,20.34-5.22,28.42-12.54c7.25-6.56,12.38-14.6,16.3-23.47
			c1.6-3.62,0.44-7.35-2.61-8.98c-3.57-1.91-8.05-0.91-10.22,2.39c-0.65,0.99-1.08,2.13-1.56,3.23c-2.57,5.93-5.9,11.35-10.63,15.81
			c-8.08,7.63-17.55,9.79-28.17,6.76c-5.89-1.68-11.28-4.43-16.17-8.17c-6-4.58-8.17-10.8-8.02-18.07
			c0.12-5.75,2.14-10.97,4.69-15.98c5.78-11.36,13.56-21.08,23.93-28.61c5.77-4.18,11.84-7.83,18.3-10.87
			c9.77-4.6,19.96-7.75,30.65-9.1c3.95-0.5,7.97-0.62,11.96-0.57c5.43,0.06,10.86,0.3,16.28,0.73c12.22,0.97,24.23,3.22,35.99,6.71
			c6.52,1.93,12.88,4.28,18.97,7.33c0.43,0.21,0.84,0.46,1.23,0.74c0.25,0.18,0.42,0.46,0.82,0.91c-0.75,0.65-1.4,1.3-2.14,1.85
			c-9.35,6.88-18.22,14.33-26.3,22.69c-14.23,14.73-25.41,31.41-32.33,50.79c-3.51,9.82-5.75,19.94-6.9,30.31
			c-1.13,10.22-1.15,20.43-0.36,30.66c0.26,3.35,0.71,6.68,1.08,10.01c0.25,2.21-0.04,2.47-2.32,2.24
			c-5.29-0.55-10.04-2.51-14.44-5.43c-5.26-3.49-10.54-6.96-15.83-10.41c-2.28-1.49-4.67-2.78-7.39-3.31
			c-4.5-0.86-7.57,1.61-7.62,6.19c-0.03,3.49,1.47,6.31,3.82,8.78C161.79,231.76,161.76,231.78,161.96,233.46z"/>
		<path class="st0" d="M351.61,496.48c-1.12,0.83-1.94,1.44-2.97,2.21c1.25,1.09,2.35,2.05,3.48,3.03
			c-6.21,4.19-44.98,11.2-65.98,11.91c-31.45,1.05-62.12-3.17-92.21-13.65c0.86-0.75,1.42-1.24,2.01-1.75
			c-1.13-1.07-2.92-0.96-3.61-2.74c0.59-0.37,1.13-0.81,1.75-1.08c6.03-2.63,11.73-5.85,17.23-9.43c2.64-1.72,5.47-2.48,8.61-2.46
			c3.43,0.02,6.87-0.02,10.29-0.32c8.69-0.76,16.36-4.12,23.17-9.49c4.84-3.82,9.01-8.21,12.23-13.55c1.61-2.66,3.55-5.1,4.5-8.11
			c2.8-2.75,3.22-6.49,4.04-10.02c0.81-3.5,1.41-7.06,1.86-10.62c1.23-9.61,0.28-19.16-1.07-28.68c-0.26-1.82-0.42-3.66-0.78-5.46
			c-0.37-1.88,0.15-3.46,1.17-4.97c0.34-0.51,0.7-1.08,0.81-1.66c0.59-3.04,2.35-4.79,5.28-5.88c8.11-3,16.32-5.58,24.8-7.31
			c10.27-2.09,20.64-2.56,31.03-1.66c10.8,0.94,21.24,3.67,31.29,7.76c15.7,6.4,29.91,15.21,42.24,26.89
			c3.65,3.45,6.93,7.3,10.24,11.09c3.85,4.39,5.59,9.82,7.12,15.31c3.18,11.39,2.11,22.43-3.53,32.77
			c-5.7,10.44-14.92,16.65-26.16,20.02c-1.82,0.55-3.49,0.3-4.71-1.38c-0.79-1.09-1.76-1.22-2.94-0.62c-1.35,0.69-2.8,1.2-4.1,1.98
			c-1.97,1.19-4.04,1.43-6.23,1.05c-6.31-1.1-12.54-2.47-18.34-5.36c-7.52-3.75-13.09-9.32-16.24-17.21
			c-0.55-1.37-0.71-2.71-0.56-4.2c0.39-4.02,1.58-7.82,2.74-11.65c1.04-3.43,2.29-6.87,2.75-10.39c0.37-2.86-0.25-5.86-0.52-8.8
			c-0.06-0.59-0.46-1.2-0.84-1.7c-1.77-2.36-7.44-3.75-10.11-2.49c-2.23,1.05-4.1,2.56-5.19,4.8c-4.34,8.87-7.11,18.11-6.9,28.13
			c0.2,9.64,4.06,17.6,10.54,24.51c3.47,3.7,7.35,6.87,11.56,9.68C350.01,495.38,350.66,495.83,351.61,496.48z"/>
		<path class="st0" d="M447.99,460.73c-0.07-1.18-0.19-2.35-0.21-3.53c-0.15-10.29-1.54-20.37-4.57-30.24
			c-3.53-11.49-9.75-21.31-17.98-29.93c-8.65-9.05-18.79-16.1-29.88-21.81c-12.35-6.37-25.22-11.43-38.93-13.83
			c-12.4-2.17-24.97-2.36-37.53-1.53c-11.86,0.78-23.44,3.07-34.75,6.64c-4.19,1.32-8.28,2.94-12.39,4.48
			c-2.97,1.11-4.03,0.48-4.66-2.65c-2.62-13.01-5.27-26-7.92-39c-0.23-1.15-0.78-2.24,0.58-3.2c0.45-0.31,0.42-1.3,0.69-2.3
			c1.18-0.04,2.51-0.17,3.82-0.12c9.43,0.3,18.85,0.63,28.27,0.94c11.74,0.39,23.48,0.75,35.23,1.14c9.27,0.31,18.53,0.63,27.8,0.96
			c8.7,0.31,17.41,0.66,26.11,0.96c9.74,0.34,19.49,0.64,29.23,0.96c10.46,0.35,20.92,0.71,31.38,1.04
			c14.78,0.47,29.55,0.89,44.33,1.38c11.34,0.37,22.68,0.81,34.02,1.23c3.56,0.13,4.01,0.73,3.14,4.25
			c-2.56,10.41-5.77,20.61-9.66,30.61c-5.09,13.08-11.28,25.61-18.57,37.57c-11.16,18.32-24.42,34.98-39.9,49.86
			c-2.29,2.2-4.68,4.3-7.03,6.45C448.4,460.94,448.2,460.84,447.99,460.73z"/>
		<path class="st0" d="M263.25,236.3c-6.07-0.15-12.14-0.32-18.21-0.45c-1.12-0.02-2.05-0.18-2.45-1.42
			c-2.58-8.06-5.66-15.96-7.37-24.3c-2.19-10.68-2.4-21.42-1.19-32.21c1.17-10.46,3.53-20.63,7.92-30.25
			c3.91-8.55,8.84-16.47,14.51-23.94c7.38-9.71,15.75-18.49,24.99-26.43c3.62-3.11,3.69-3.13,7.23-0.14
			c11.99,10.12,20.74,22.52,25.98,37.32c3.68,10.38,5.98,21.05,6.31,32.09c0.44,15.18-2.65,29.49-10.24,42.78
			c-4.85,8.49-11.04,15.84-18.09,22.53c-3.68,3.49-8.02,5.05-13.09,4.84c-5.43-0.23-10.86-0.31-16.29-0.45
			C263.25,236.28,263.25,236.29,263.25,236.3z"/>
		<path class="st0" d="M364.66,54.64c-4.3,0.34-8.6,0.66-12.9,1.03c-12.1,1.03-23.79,3.91-35.17,8.08
			c-4.57,1.67-9.12,3.48-13.52,5.56c-5.5,2.61-10.75,2.68-16.37,0.22c-14.1-6.17-28.77-10.65-43.89-13.54
			c-8.4-1.61-16.88-2.7-25.44-3.14c-0.55-0.03-1.09-0.1-2.18-0.2c0.77-0.45,1.09-0.71,1.46-0.83c10.86-3.71,22.08-5.76,33.4-7.42
			c15.87-2.33,31.82-2.98,47.83-2.29c6.22,0.27,12.44,0.83,18.63,1.49c10.42,1.11,20.72,2.99,30.86,5.62
			c5.41,1.4,10.75,3.1,16.11,4.67c0.44,0.13,0.86,0.33,1.29,0.49C364.74,54.47,364.7,54.55,364.66,54.64z"/>
		<path class="st0" d="M487.03,291.32c0-0.98-0.04-1.69,0.01-2.4c0.15-2.29,0.77-2.86,3.13-2.97c0.4-0.02,0.8,0,1.2-0.04
			c2.75-0.27,4.54-2.11,4.56-4.63c0.02-2.98-1.62-5.01-4.45-5.23c-2.04-0.16-4.1-0.03-6.51-0.03c-0.4,8.97-0.79,17.86-1.19,26.89
			c-2.11,0-3.97,0-6.03,0c-0.05-1.04-0.15-1.9-0.12-2.75c0.29-8.94,0.59-17.88,0.91-26.82c0.09-2.54,0.63-3.03,3.21-3.02
			c3.11,0.02,6.23,0.12,9.34,0.14c2.92,0.02,5.47,1.03,7.74,2.79c5.45,4.23,4.86,12.93-1.11,16.5
			C494.46,291.71,490.93,291.76,487.03,291.32z"/>
		<path class="st0" d="M91.89,280.16c0-1.06-0.08-2.01,0.02-2.93c0.13-1.16,0.87-1.86,2.04-2c0.79-0.1,1.6-0.06,2.38-0.2
			c2.3-0.4,3.56-1.93,3.62-4.33c0.06-2.23-1.26-4.25-3.36-4.61c-2.01-0.35-4.09-0.34-6.48-0.51c-0.52,8.63-1.02,16.97-1.53,25.35
			c-1.84,0-3.47,0-5.26,0c0-1.13-0.04-2.07,0.01-3.01c0.45-8.22,0.91-16.43,1.36-24.65c0.14-2.5,0.55-2.93,2.98-2.92
			c2.8,0.02,5.6-0.02,8.38,0.15c4.58,0.27,7.57,2.54,8.83,6.49c1.3,4.09,0.2,8.28-2.95,10.88C99.03,280.28,95.65,280.7,91.89,280.16
			z"/>
		<path class="st0" d="M160.69,262.71c0,1.76,0,3.31,0,5.2c-4.65-0.13-9.17-0.26-13.77-0.39c-0.16,0.57-0.36,1-0.39,1.45
			c-0.3,5.51-0.58,11.02-0.83,16.53c-0.09,1.92,0.14,2.15,2.18,2.25c3.19,0.16,6.39,0.28,9.58,0.42c0.71,0.03,1.41,0.12,2.11,0.19
			c0.86,1.69,0.82,3.31,0.31,5.27c-6.57-0.22-13.15-0.45-20-0.68c0-1.42-0.05-2.6,0.01-3.77c0.38-7.91,0.76-15.82,1.2-23.72
			c0.15-2.81,1.16-3.63,3.95-3.52c4.31,0.17,8.63,0.3,12.94,0.47C158.82,262.44,159.67,262.59,160.69,262.71z"/>
		<path class="st0" d="M33.76,289.39c-1.77,0-3.25,0-4.88,0c-0.03-0.67-0.1-1.2-0.07-1.73c0.52-8.78,1.05-17.55,1.6-26.33
			c0.13-2.01,0.47-2.36,2.49-2.34c3.03,0.02,6.09-0.06,9.1,0.26c4.45,0.48,7.15,3.01,8.03,7.04c0.95,4.35-0.75,8.63-4.32,10.85
			c-2.57,1.6-5.36,1.88-8.57,1.38c0-0.72-0.02-1.4,0-2.08c0.09-2.64,0.22-2.77,2.9-2.8c3.16-0.03,5.15-2.09,4.98-5.13
			c-0.12-1.96-1.36-3.62-3.28-3.91c-1.95-0.3-3.95-0.3-6.18-0.44C34.59,272.64,34.52,280.94,33.76,289.39z"/>
		<path class="st0" d="M76.35,260.24c0.85,1.57,0.03,3.2,0.16,4.99c-4.53,0-8.88,0-13.53,0c-0.56,6.45-0.88,12.85-1.11,19.53
			c4.68,0.24,9.18,0.46,13.78,0.7c0,1.81,0,3.44,0,5.34c-6.57-0.18-12.89-0.36-19.26-0.54c0-1.93-0.08-3.52,0.01-5.1
			c0.44-7.73,0.92-15.47,1.41-23.2c0.12-1.96,0.51-2.41,2.23-2.38c5.27,0.11,10.53,0.29,15.8,0.45
			C75.97,260.02,76.12,260.14,76.35,260.24z"/>
		<path class="st0" d="M420.66,302.1c-2.75-1.23-4.75-2.95-6.64-4.77c-4.91-4.73-9.1-10.09-12.82-15.78
			c-2.64-4.03-1.49-8.05,0.92-11.39c0.52-0.72,1.5-1.22,2.37-1.53c2.47-0.9,5.14-0.97,7.53-0.12c1.77,0.62,3.45,1.99,4.72,3.42
			c1.53,1.72,1.04,3.92,0.23,5.92c-0.89,2.23-2.73,4.14-5.27,5.7c-1.94-1.95-2.15-2.6-0.81-4.92c0.84-1.45,0.84-2.89,0.63-4.39
			c-0.22-1.57-1.23-2.37-2.81-2.37c-1.59-0.01-2.91,0.98-3.06,2.45c-0.08,0.77-0.03,1.63,0.23,2.35c0.59,1.65,1.14,3.37,2.09,4.81
			c1.73,2.67,3.66,5.21,5.65,7.7c0.78,0.97,1.96,1.6,2.92,2.44c1.12,0.99,2.34,1.86,2.89,3.42c0.26,0.75,1.09,1.38,1.79,1.88
			c1.15,0.83,1.2,1.75,0.57,2.89C421.41,300.49,421.09,301.21,420.66,302.1z"/>
		<path class="st0" d="M133.96,261.88c0,1.77,0,3.31,0,4.99c-4.52,0-8.87,0-13.46,0c-0.45,8.38-0.89,16.65-1.34,25.01
			c-1.8,0.61-3.48,0.09-5.14-0.01c0-2.59-0.09-5.05,0.02-7.5c0.27-6.06,0.62-12.13,0.94-18.19c0.05-0.88,0.06-1.76,0.22-2.62
			c0.26-1.41,1.06-2.26,2.34-2.26C122.89,261.31,128.24,261.18,133.96,261.88z"/>
		<path class="st0" d="M194.21,287.59c-2.11,4.92-7.59,7.78-13.9,7.33c-6.64-0.46-11.86-4.77-13.81-11.15
			c-1.59-5.2,0.4-12.82,5.74-16.45c0.03,1.02,0.11,1.84,0.08,2.66c-0.11,3.11-0.38,6.23-0.36,9.34c0.03,4.85,2.49,8.27,6.9,9.52
			c3.75,1.06,7.42,0.57,10.35-2.1c2.12-1.94,2.46-1.3,4.18,0.05C193.69,287.05,193.96,287.34,194.21,287.59z"/>
		<path class="st0" d="M534.04,304.45c-2.06,0-3.95,0.02-5.84-0.01c-1.06-0.01-1.19-0.95-1.48-1.65c-1.45-3.55-2.86-7.12-4.29-10.68
			c-1.87-4.68-3.63-9.4-5.65-14.01c-1.26-2.87,0.22-4.93,1.58-7.06c0.53-0.84,1.57-0.7,2.2,0.14c0.33,0.44,0.57,0.96,0.78,1.48
			c4.1,10.07,8.19,20.15,12.27,30.22C533.8,303.3,533.87,303.77,534.04,304.45z"/>
		<path class="st0" d="M246.44,264.95c1,1.1,1.98,2.14,2.9,3.23c5.89,6.94,11.71,13.94,17.69,20.81c1.3,1.49,2.02,2.99,1.98,4.91
			c-0.03,1.26-0.11,2.52-0.16,3.69c-1.6,0.63-2.43-0.12-3.26-1.11c-5.34-6.36-10.72-12.69-16.08-19.03
			c-1.29-1.52-2.45-3.17-3.85-4.58c-1.27-1.29-1.35-2.71-1.34-4.37C244.31,266.92,245.02,265.97,246.44,264.95z"/>
		<path class="st0" d="M453.93,272.01c0,1.49,0.07,2.99-0.01,4.48c-0.16,2.9,0.92,4.84,3.76,5.94c2.28,0.89,4.52,2.01,6.55,3.38
			c5.75,3.89,6.84,8.83,2.4,13.87c-0.85,0.96-2.16,1.51-3.71,2.56c-0.11-1.29-0.19-2.03-0.23-2.77c-0.08-1.83-0.13-3.67-0.21-5.5
			c-0.08-1.87-1.11-3.13-2.7-3.95c-1.7-0.88-3.5-1.6-5.14-2.57c-1.78-1.05-3.52-2.2-5.1-3.52c-2.13-1.79-2.56-4.2-1.68-6.77
			c0.87-2.55,1.98-4.98,5.18-5.28C453.26,271.86,453.49,271.95,453.93,272.01z"/>
		<path class="st0" d="M360.46,268.57c0,2.18,0.13,4-0.03,5.8c-0.25,2.86,0.86,4.7,3.52,5.81c1.98,0.83,3.88,1.87,5.73,2.96
			c2.24,1.33,4.01,3.07,4.83,5.7c1.42,4.52-1.12,9.25-6.06,10.66c0-0.91,0.02-1.76,0-2.61c-0.05-1.67-0.15-3.34-0.18-5.01
			c-0.04-1.89-1.03-3.14-2.61-3.99c-1.62-0.86-3.34-1.55-4.89-2.51c-1.75-1.08-3.46-2.28-5-3.63c-1.6-1.41-2.24-3.34-1.61-5.44
			C355.12,273.09,356.06,269.83,360.46,268.57z"/>
		<path class="st0" d="M514.67,294.51c1.38,0,2.72,0.06,4.06-0.02c1.23-0.08,1.97,0.47,2.42,1.53c0.49,1.15,0.96,2.3,1.59,3.81
			c-1.4,0-2.41,0.02-3.42,0c-2.08-0.05-4.15-0.09-6.23-0.19c-1.1-0.05-1.83,0.35-2.24,1.38c-0.18,0.44-0.47,0.85-0.6,1.3
			c-0.39,1.31-1.27,1.75-2.55,1.57c-1.44-0.2-3.04,0.46-4.6-0.94c3.41-7.74,7.14-15.37,11.02-23.3c0.52,0.64,0.92,0.99,1.14,1.44
			c2.54,5.18,2.53,5.18,0.12,10.45c-0.3,0.65-0.58,1.31-0.84,1.98C514.48,293.65,514.56,293.82,514.67,294.51z"/>
		<path class="st0" d="M297.93,298.21c-1.18-3.06-2.31-5.94-3.4-8.85c-1.87-5.01-3.7-10.03-5.54-15.05c-0.96-2.6,0.08-6.4,2.27-8.21
			c0.1-0.08,0.3-0.04,0.46-0.05c1.29,1.47,11.65,28.87,12.05,31.97C301.95,298.79,300.07,298.12,297.93,298.21z"/>
		<path class="st0" d="M316.96,298.58c-1.88,0-3.67,0-5.61,0c-0.06-0.63-0.15-1.09-0.13-1.54c0.35-8.55,0.79-17.1,1.02-25.65
			c0.1-3.6,2.24-5.29,5.82-3.95c0.11,0.82,0.39,1.76,0.35,2.68c-0.37,9.27-0.79,18.53-1.2,27.8
			C317.2,298.07,317.1,298.21,316.96,298.58z"/>
		<path class="st0" d="M167.95,533.91c1.58,0.72,3,1.4,4.44,2.01c1.69,0.71,3.41,1.36,5.11,2.05c0.73,0.3,1.27,0.76,0.89,1.65
			c-0.36,0.85-1.01,0.88-1.79,0.56c-1.7-0.68-3.42-1.34-5.14-1.98c-0.94-0.35-1.9-0.63-2.93-0.73c1.07,1.58,2.88,1.74,4.38,2.46
			c1.48,0.71,3.03,1.3,4.91,2.09c-1.81,0.3-8.5-2.14-14.73-5.17c0.19-0.9,0.29-1.92,0.63-2.85c2.02-5.39,4.03-10.78,6.18-16.12
			c0.66-1.64,1.75-3.11,2.66-4.69c3.02,0.48,11.57,3.93,13.05,5.31c-0.37,1.17-1.24,1.02-2.11,0.73c-1.6-0.52-3.16-1.13-4.78-1.58
			c-0.97-0.27-2.42-0.79-2.94-0.35c-1.04,0.88-2.39,1.46-2.92,3.09C171.43,524.89,169.68,529.25,167.95,533.91z"/>
		<path class="st0" d="M286.12,288.31c1.56,0.18,2.81,0.47,4.03,0.42c1.49-0.07,2.21,0.59,2.56,1.92c0.25,0.96,0.55,1.92,0.92,3.18
			c-2.03,0-3.68-0.01-5.33,0c-1.51,0.01-3.26-0.43-4.46,0.18c-1.07,0.55-1.54,2.27-2.28,3.48c-1.6,0-3.22,0-4.87,0
			c0.3-2.37,8.11-19.48,9.87-21.79c2.25,2.56,2.76,5.48,1.45,8.4C287.46,285.34,286.91,286.58,286.12,288.31z"/>
		<path class="st0" d="M327.02,291.05c0-1.35-0.04-2.38,0.01-3.4c0.23-5.34,0.47-10.69,0.71-16.03c0.18-4.14,1.63-5.14,5.71-3.96
			c0.62,1.83,0.06,20.29-0.75,23.38C330.93,291.05,329.13,291.05,327.02,291.05z"/>
		<path class="st0" d="M200.28,269.25c0-1.1-0.06-1.81,0.01-2.52c0.15-1.6,1.4-2.93,2.86-2.88c7.18,0.25,14.35,0.57,21.53,0.87
			c0.15,0.01,0.3,0.11,0.77,0.29c0.08,1.41,0.16,2.96,0.27,4.87C217.19,270.06,208.89,269.41,200.28,269.25z"/>
		<path class="st0" d="M263.84,553.74c0.4-1.07,0.58-1.55,0.82-2.21c-0.79-0.28-1.56-0.55-2.6-0.92c0.74-0.81,1.35-1.48,1.96-2.13
			c0.64-0.69,1.2-1.52,1.96-2.04c1-0.68,1.36-1.46,1.18-2.62c-0.1-0.62,0.04-1.28-0.05-1.9c-0.2-1.29-0.48-2.56-0.75-3.92
			c0.43,0.04,1.15,0.11,1.98,0.18c-0.17-1.82-1.33-2.39-2.7-2.71c-1.48-0.36-2.67,0.12-3.57,1.33c-1.34,1.81-2.29,3.79-2.44,6.16
			c-1.31,0-2.47,0-3.64,0c0-0.38-0.09-0.67,0.01-0.84c1.31-2.3,2.1-4.79,2.72-7.35c0.3-1.25,1.39-1.7,2.48-2.02
			c5.36-1.55,10.51,2.32,10.99,7.9c0.26,2.97-0.64,5.32-2.44,7.47c-1.28,1.53-2.61,3.02-3.97,4.46
			C265.4,552.98,264.81,553.17,263.84,553.74z"/>
		<path class="st0" d="M214.62,295.58c-1.99-0.09-3.7-0.18-5.58-0.27c-0.06-0.87-0.17-1.57-0.14-2.26
			c0.25-5.74,0.52-11.48,0.78-17.21c0.14-3.13,2.46-4.96,5.82-3.17C215.47,280.07,214.96,287.61,214.62,295.58z"/>
		<path class="st0" d="M402.15,285.63c0.57,0.71,1.02,1.26,1.45,1.83c0.59,0.77,0.75,1.56,0.17,2.43c-0.22,0.33-0.4,0.7-0.51,1.08
			c-0.9,3.04,1.14,5.55,4.39,5.51c1.08-0.01,2.26-1.07,3.18-0.07c0.93,1.01,1.55,2.31,2.4,3.63c-0.79,0.44-1.29,0.82-1.86,1.03
			c-3.35,1.26-6.75,1.18-10.1,0.03c-4.23-1.45-5.81-5.04-4.13-9.19C398.17,289.42,399.79,287.39,402.15,285.63z"/>
		<path class="st0" d="M190.76,273.6c-1.97-2.79-4.11-4.73-7.25-5.24c-3.04-0.49-5.81,0.39-8.43,1.89
			c-1.24-4.02,1.32-6.57,4.06-7.25c5.45-1.35,11.61,0.84,14.84,5.43c1.32,1.87,1.25,2.3-0.69,3.62
			C192.52,272.57,191.7,273.03,190.76,273.6z"/>
		<path class="st0" d="M270.11,265.99c0.15,7.17-0.46,14.26-0.79,21.37c-0.17,0.06-0.35,0.12-0.52,0.18
			c-1.59-1.85-3.24-3.65-4.71-5.59c-0.41-0.54-0.38-1.5-0.36-2.27c0.1-3.28,0.28-6.55,0.41-9.82c0.12-2.99,1.53-4.29,4.52-4.12
			C269.05,265.75,269.42,265.86,270.11,265.99z"/>
		<path class="st0" d="M346.45,294.03c0,2.03,0,3.6,0,5.49c-6.5,0.23-12.96-0.3-19.35-0.44c-1.44-2.25,0.74-3.62,0.83-5.63
			C334.08,293.65,340.09,293.84,346.45,294.03z"/>
		<path class="st0" d="M197.77,522.61c-0.24,1.34-0.36,2.43-0.65,3.47c-0.82,3.03-0.15,5.45,2.51,7.32c1.16,0.82,2.15,1.9,3.13,2.94
			c1.93,2.06,2.61,4.62,2.15,7.31c-0.45,2.63-2.25,4.26-5.04,5.11c0-0.95-0.03-1.7,0.01-2.46c0.09-1.58,0.38-3.18,0.26-4.74
			c-0.06-0.86-0.64-1.78-1.22-2.49c-0.75-0.92-1.73-1.64-2.6-2.46c-0.76-0.71-1.61-1.34-2.24-2.14c-2.38-3.03-2.5-3.36-0.18-6.63
			c0.56-0.79,0.82-1.84,1.04-2.81C195.34,523.26,195.57,522.97,197.77,522.61z M197.89,534.74c0.97,2.4,2.29,3.45,4.37,4.02
			C200.75,537.37,199.32,536.06,197.89,534.74z"/>
		<path class="st0" d="M243.99,277.02c0.64-0.18,1.16-0.32,1.74-0.48c0.5,0.54,0.92,1.13,1.47,1.57c2.18,1.72,2.57,4.01,2.4,6.6
			c-0.27,3.88-0.41,7.77-0.61,11.75c-1.91,0.48-3.68,0.25-5.77-0.09C243.48,289.89,243.73,283.49,243.99,277.02z"/>
		<path class="st0" d="M286.19,537.56c0.23,1.36,0.53,2.66,0.66,3.98c0.27,2.7,0.44,5.41,0.7,8.12c0.08,0.87,0.22,1.75,0.48,2.59
			c0.75,2.39,2.94,3.72,5.4,3.33c0.61-0.1,1.21-0.29,1.82-0.44c0.42,2.55,0.21,2.93-2.07,2.73c-1.43-0.13-2.83-0.67-4.42-1.07
			c0.46,1,0.93,2.05,1.39,3.04c-1.72-0.1-3.06-0.71-4.42-2.33c-3.83-4.58-4.55-10.4-1.64-15.88
			C284.77,540.34,285.42,539.04,286.19,537.56z"/>
		<path class="st0" d="M346.72,548.46c-1.8,0.42-3.18,0.73-4.82,1.11c-0.06-0.9-0.19-1.58-0.13-2.26c0.36-4.76,0.72-9.53,1.16-14.28
			c0.2-2.1,0.89-2.48,4.04-2.56c0,1.33,0.07,2.66-0.02,3.99c-0.13,2.15-0.4,4.28-0.53,6.43c-0.07,1.12-0.19,2.11,0.53,3.32
			C347.53,545.18,346.85,546.92,346.72,548.46z"/>
		<path class="st0" d="M219.59,554.42c0.51-3.27,0.96-6.25,1.43-9.22c0.19-1.18,0.56-2.34,0.62-3.53c0.12-2.16,1.79-3.24,2.85-4.71
			c-0.74-0.37-1.63-0.82-2.55-1.28c0.88-1.28,1.76-1.28,4.91-0.11c-1.02,6.37-2.05,12.75-3.12,19.4
			C222.31,554.78,221.17,554.63,219.59,554.42z"/>
		<path class="st0" d="M355.9,290.76c2.55,2.7,5.31,4.98,9.66,4.19c0.1,1.95,0.19,3.63,0.29,5.47c-5.1,0.7-9.17-0.56-12.43-4.12
			c-1.22-1.34-0.93-3.27,0.5-4.31C354.49,291.57,355.12,291.24,355.9,290.76z"/>
		<path class="st0" d="M320,557.47c-5.58-1.58-7.61-6.05-8.62-10.99c-0.68-3.36,0.48-6.51,3.15-9.48c0.29,0.93,0.48,1.41,0.57,1.9
			c0.79,4.14,1.52,8.3,2.37,12.43C317.94,553.49,318.45,555.68,320,557.47z"/>
		<path class="st0" d="M297.94,558.54c-1.19-6.9,0.02-13.87-3.26-20.23c2.36,0.15,3.84,1.54,5.14,3.17
			c3.86,4.83,2.34,12.33-0.25,15.48C299.14,557.48,298.6,557.91,297.94,558.54z"/>
		<path class="st0" d="M328.03,555.06c-0.66-3.84-1.34-7.67-1.99-11.51c-0.46-2.77-1.07-5.48-2.79-7.86
			c4.17,0.85,6.29,3.89,7.59,7.52c1.57,4.37,0.7,8.41-2.27,11.92C328.39,555.12,328.21,555.09,328.03,555.06z"/>
		<path class="st0" d="M459.62,302.86c-5.61,0.65-10.02-1.01-13.6-5.28c1.05-1.49,2.02-2.9,4.05-3.39c1.52,2.03,3.79,2.8,6.21,3.44
			c1.15,0.3,2.12,1.28,3.35,2.07C459.62,300.52,459.62,301.53,459.62,302.86z"/>
		<path class="st0" d="M363.26,272.96c-0.2-0.28-0.29-0.34-0.29-0.41c-0.37-5.4,1.7-5.88,5.95-4.37c2.54,0.91,4.51,2.62,5.61,5.47
			c-1.28,0.99-2.52,1.94-4,3.09C368.71,274.09,366.31,272.58,363.26,272.96z"/>
		<path class="st0" d="M456.78,274.72c0-1.14-0.08-1.93,0.02-2.7c0.21-1.57,1.58-2.67,3.16-2.55c4,0.31,6.62,2.68,8.93,5.99
			c-1.45,1.05-2.77,2.01-4.27,3.09C462.73,275.87,460.29,274.43,456.78,274.72z"/>
		<path class="st0" d="M106.96,291.26c-2.16,0.88-3.95,0.52-5.72,0.14c-0.31-0.07-0.59-0.5-0.8-0.83c-1.07-1.68-2.16-3.36-3.16-5.09
			c-0.97-1.69-0.55-2.69,1.25-3.23c2.06-0.63,2.59-0.44,3.73,1.39C103.77,286.07,105.26,288.51,106.96,291.26z"/>
		<path class="st0" d="M354.85,551.17c-1.07-3.7-2.11-7.26-3.21-11.04c1.56-0.51,2.82-0.92,4.34-1.42c0.35,0.98,0.64,1.77,0.93,2.56
			c0.73,2.01,1.5,4.01,2.18,6.04c0.75,2.23,0.52,2.64-1.67,3.26C356.68,550.79,355.91,550.93,354.85,551.17z"/>
		<path class="st0" d="M235.27,532.17c-1.48-0.08-2.85-0.03-4.18-0.26c-3.85-0.67-7.69-1.44-11.53-2.18
			c-0.39-0.08-0.88-0.08-1.14-0.32c-0.35-0.33-0.68-0.84-0.71-1.3c-0.02-0.23,0.61-0.61,1.01-0.73c0.35-0.11,0.79-0.02,1.18,0.06
			c4.79,0.91,9.57,1.85,14.36,2.73C235.37,530.37,235.83,530.8,235.27,532.17z"/>
		<path class="st0" d="M130.87,280.37c-2.88,0-5.49,0-8.15,0c-0.55-1.79-0.56-3.28,0.88-4.46c0.4-0.33,0.91-0.71,1.38-0.72
			c1.89-0.04,3.79,0.05,5.89,0.09C130.87,277.1,130.87,278.64,130.87,280.37z"/>
		<path class="st0" d="M156.58,279.39c-0.74,0.11-1.12,0.21-1.5,0.21c-2.06,0.02-4.11,0.01-6.09,0.01
			c-1.03-2.09-0.19-3.45,0.99-4.69c0.25-0.26,0.68-0.5,1.02-0.49c1.72,0.02,3.44,0.12,5.35,0.2
			C156.44,276.36,156.51,277.75,156.58,279.39z"/>
		<path class="st0" d="M72.3,271.86c0,1.86,0,3.33,0,4.95c-2.52,0-4.84,0-7.41,0c0-0.8-0.02-1.4,0-2c0.11-2.66,0.41-2.94,3.12-2.94
			C69.34,271.86,70.68,271.86,72.3,271.86z"/>
		<path class="st0" d="M257.02,555.87c0.52-0.23,1.04-0.66,1.55-0.64c4.12,0.12,8.23,0.33,12.34,0.52c0.23,0.01,0.52,0.04,0.68,0.18
			c0.33,0.28,0.9,0.78,0.83,0.93c-0.2,0.42-0.66,0.71-1.05,1.02c-0.1,0.08-0.31,0.05-0.47,0.05c-3.8-0.15-7.61-0.25-11.41-0.49
			c-0.84-0.05-1.65-0.61-2.48-0.93C257.02,556.29,257.02,556.08,257.02,555.87z"/>
		<path class="st0" d="M195.53,548.73c-3.24-0.62-4.71-1.64-6.67-4.5c2.26-0.97,1.03-3.02,1.48-4.81c1.67,2.65,3.46,5.04,7.03,5.28
			c-0.29,0.92-0.49,1.56-0.77,2.49c-1.31-0.52-2.45-0.97-3.82-1.52C192.97,547.43,194.42,547.68,195.53,548.73z"/>
		<path class="st0" d="M420.96,293.29c-0.79-0.64-1.48-1.16-2.12-1.74c-1.17-1.05-1.34-1.88-0.72-3.14c0.39-0.8,2.1-1.59,3.07-1.34
			c0.91,0.23,1.81,0.55,2.69,0.83C423.63,289.95,423.08,290.99,420.96,293.29z"/>
		<path class="st0" d="M298.34,536.34c-2.33-0.58-4.67-1.15-7.15-1.76c0.05-0.51,0.11-1.11,0.15-1.59
			C292.94,531.74,297.07,533.83,298.34,536.34z"/>
		<path class="st0" d="M201.61,522.92c2.85,0.21,4.86,2.01,5.44,5.16c-0.61-0.33-1.05-0.51-1.43-0.79
			c-1.12-0.83-2.19-1.74-3.33-2.53C201.52,524.22,201.47,524.29,201.61,522.92z"/>
		<path class="st0" d="M179.24,526.51c-0.01,1.17-0.5,1.73-1.33,1.49c-1.2-0.36-2.35-0.93-3.47-1.51c-0.22-0.11-0.37-0.75-0.25-1.02
			c0.11-0.25,0.68-0.52,0.93-0.44C176.55,525.48,177.92,526.02,179.24,526.51z"/>
		<path class="st0" d="M204.5,530.77c-0.69-1.14-1.26-2.08-1.82-3.01c1.65,0.24,1.89,0.38,3.56,2.14
			C205.61,530.21,205.05,530.49,204.5,530.77z"/>
		<path class="st0" d="M320.38,552.88c0.63,0.21,1.25,0.42,2.32,0.77C321.24,554.37,320.71,553.89,320.38,552.88z"/>
		<path d="M197.89,534.74c1.43,1.31,2.86,2.63,4.37,4.02C200.18,538.19,198.86,537.14,197.89,534.74z"/>
	</g>
</g>
</svg>
